<svg width="64" height="64" viewBox="0 0 64 64" fill="none" xmlns="http://www.w3.org/2000/svg">
<g clip-path="url(#clip0)">

<path d="M62.4432 40.8328L45.0739 52.1722C44.0567 52.8367 42.3935 52.8381 41.3615 52.1722L12.1879 33.4442C11.1546 32.7811 11.1435 31.7046 12.1607 31.0401L29.5299 19.7075C30.5484 19.043 32.2103 19.0416 33.2424 19.7075L62.416 38.4356C63.4493 39.0917 63.4616 40.1683 62.4432 40.8328Z" fill="#3D8D99"/>
<path d="M63.2442 39.6216L45.8761 50.9542C44.8577 51.6187 43.1945 51.62 42.1637 50.9542L12.9901 32.2261C11.9568 31.563 11.9444 30.4865 12.9629 29.822L30.3346 18.488C31.3531 17.8235 33.0163 17.8221 34.0471 18.488L63.2207 37.2161C64.2503 37.8834 64.2626 38.9571 63.2442 39.6216Z" fill="#3D8D99"/>
<path d="M62.6117 40.035L45.2437 51.3676C44.2253 52.0321 42.5621 52.0335 41.5313 51.3676L12.3577 32.6395C11.3244 31.9764 11.3132 30.8999 12.3317 30.2354L29.6997 18.9028C30.7181 18.2383 32.3813 18.2369 33.4121 18.9028L62.5857 37.6309C63.6228 38.2995 63.6302 39.3705 62.6117 40.035Z" fill="#3D8D99"/>
<path opacity="0.58" d="M62.611 40.0336L45.2417 51.3676C45.1121 51.4511 44.9768 51.523 44.837 51.5826C43.8248 52.0223 42.4338 51.9502 41.528 51.3703L12.3544 32.6423C11.3224 31.9805 11.31 30.904 12.3272 30.2395L20.2854 25.0484L29.6903 18.907C30.7075 18.2425 32.3707 18.2411 33.4027 18.907L62.5751 37.635C63.622 38.2995 63.6294 39.3705 62.611 40.0336Z" fill="url(#paint0_linear)"/>
<path opacity="0.58" d="M28.3971 19.7837L61.4106 40.6995L55.5573 44.5283L22.7529 23.3767L28.3971 19.7837Z" fill="url(#paint1_linear)"/>
<path opacity="0.58" d="M52.7953 46.39L44.837 51.5826C43.8248 52.0223 42.4338 51.9502 41.528 51.3703L12.3544 32.6423C11.3224 31.9805 11.31 30.904 12.3272 30.2395L20.2854 25.0484C21.2965 24.6086 22.6886 24.6808 23.5945 25.2606L52.768 43.9873C53.8001 44.6504 53.8125 45.7269 52.7953 46.39Z" fill="url(#paint2_linear)"/>
<path d="M34.0365 27.4012L30.2993 29.8372C29.735 30.2063 28.8143 30.2063 28.2401 29.8372L23.6615 26.8976C23.0885 26.53 23.0823 25.9265 23.6466 25.5645L27.3838 23.1257C27.9481 22.758 28.8688 22.7567 29.443 23.1257L34.0216 26.0653C34.5946 26.4371 34.6008 27.0336 34.0365 27.4012Z" fill="#FDB523"/>
<path d="M31.6222 28.9494L31.0035 29.349L29.0965 28.1226C28.7733 28.261 28.4233 28.3012 28.0818 28.2392L27.9902 28.2197L27.9184 28.1754C27.7588 28.0782 26.3407 27.2181 26.0189 26.9532C25.6774 26.6757 25.8543 26.2595 26.0189 26.0043L24.498 25.0332L25.1168 24.6337L27.0968 25.9058L26.9322 26.0917C26.7564 26.2984 26.6636 26.5523 26.7119 26.6133C26.9087 26.7756 27.7984 27.3319 28.411 27.7051C28.5403 27.6926 28.6641 27.6403 28.7686 27.5539L29.0718 27.3152L31.6222 28.9494Z" fill="#EFA92B"/>
<path d="M32.7653 28.2017L33.384 27.8021L31.4734 26.5758C31.7382 26.3178 31.7209 26.0556 31.6454 25.9182L31.6144 25.8586L31.5476 25.8128C31.3954 25.7101 30.054 24.8001 29.6431 24.5934C29.2063 24.3742 28.564 24.4921 28.1767 24.5934L26.6558 23.6223L26.0371 24.0218L28.0171 25.294L28.3054 25.1899C28.6247 25.0748 29.0157 25.0124 29.111 25.0429C29.3585 25.1691 30.2247 25.7365 30.8101 26.1333C30.8014 26.1818 30.7606 26.272 30.5799 26.3663L30.2148 26.5647L32.7653 28.2017Z" fill="#EFA92B"/>
<path d="M32.2981 28.5374L32.1681 28.622L25.5303 24.3589L25.659 24.2743L32.2981 28.5374Z" fill="#EFA92B"/>
<path d="M30.2707 29.8608L30.1408 29.944L23.5029 25.6823L23.6329 25.5977L30.2707 29.8608Z" fill="#EFA92B"/>
<path d="M34.3254 27.2139L34.1967 27.2985L27.5576 23.0355L27.6876 22.9509L34.3254 27.2139Z" fill="#EFA92B"/>
<path d="M29.7028 39.3525L15.4582 30.1327C15.1426 29.9288 15.1822 29.5778 15.5461 29.335C15.9099 29.0992 16.4618 29.0742 16.7773 29.2782L31.022 38.4979C31.3375 38.7018 31.2979 39.0528 30.9329 39.2942C30.5691 39.53 30.0184 39.5564 29.7028 39.3525Z" fill="#3D8D99"/>
<path d="M51.0392 40.103L33.6761 51.4342C32.6577 52.0987 30.9945 52.1001 29.9637 51.4342L0.788836 32.7062C-0.243223 32.043 -0.255597 30.9665 0.762849 30.302L18.1309 18.9695C19.1493 18.305 20.8125 18.3036 21.8433 18.9695L51.0169 37.6975C52.0453 38.3606 52.0576 39.4372 51.0392 40.103Z" fill="#3D8D99"/>
<path d="M51.2071 39.3039L33.839 50.6365C32.8206 51.301 31.1574 51.301 30.1266 50.6365L0.953009 31.9084C-0.0802869 31.2453 -0.0926615 30.1688 0.925785 29.5043L18.2926 18.1703C19.311 17.5058 20.9742 17.5045 22.005 18.1703L51.1786 36.8984C52.2144 37.5629 52.2255 38.6394 51.2071 39.3039Z" fill="#3D8D99"/>
<path opacity="0.58" d="M51.2087 39.3025L33.8395 50.6351C33.71 50.7194 33.5747 50.7917 33.4348 50.8515C32.4225 51.2913 31.0304 51.2191 30.1245 50.6392L0.950945 31.9112C-0.0811131 31.2481 -0.0934879 30.1729 0.924958 29.5085L8.88196 24.3173L18.293 18.1759C19.3114 17.5114 20.9734 17.51 22.0054 18.1759L51.179 36.9039C52.2136 37.5629 52.2259 38.638 51.2087 39.3025Z" fill="url(#paint3_linear)"/>
<path opacity="0.58" d="M41.3918 45.659L33.4348 50.8515C32.4225 51.2913 31.0304 51.2191 30.1245 50.6392L0.950945 31.9112C-0.0811131 31.2481 -0.0934878 30.1729 0.924958 29.5084L8.88196 24.3173C9.89421 23.8775 11.2851 23.9497 12.191 24.5296L41.3646 43.2576C42.3966 43.9193 42.409 44.9958 41.3918 45.659Z" fill="url(#paint4_linear)"/>
<path d="M22.6317 26.6701L18.8957 29.1089C18.3315 29.4765 17.4108 29.4779 16.8353 29.1089L12.2567 26.1693C11.6837 25.8003 11.6763 25.1982 12.2418 24.8361L15.979 22.3987C16.5445 22.0297 17.464 22.0297 18.0394 22.3987L22.6181 25.3383C23.1898 25.7046 23.1972 26.3025 22.6317 26.6701Z" fill="#CECECE"/>
<path d="M15.3377 25.3471L15.3075 25.3293C14.8979 25.0919 14.3864 24.576 14.33 24.4786C14.2737 24.3812 14.3098 24.1511 14.4747 23.9242C14.4316 24.0525 14.4319 24.1614 14.4667 24.2207C14.5234 24.3182 15.0346 24.834 15.4441 25.0714L15.4465 25.073C15.4348 25.0907 15.424 25.1093 15.4136 25.129C15.3779 25.1963 15.3523 25.2699 15.3377 25.3471Z" fill="#3D8D99"/>
<path d="M19.0134 27.5511L18.3039 27.1696C18.3039 27.1696 17.3325 26.5606 16.483 26.0323C16.5178 25.9927 16.5483 25.9488 16.5739 25.9013C16.5942 25.8635 16.6112 25.8234 16.6245 25.7817C17.4728 26.3091 18.44 26.9153 18.44 26.9153L19.1284 27.2852C19.1116 27.3088 19.0962 27.3336 19.0823 27.3594C19.0503 27.4186 19.0271 27.4832 19.0134 27.5511Z" fill="#3D8D99"/>
<path d="M15.3377 25.3471L15.3075 25.3293C14.8979 25.0919 14.3864 24.576 14.33 24.4786C14.2737 24.3812 14.3098 24.1511 14.4747 23.9242C14.4316 24.0525 14.4319 24.1614 14.4667 24.2207C14.5234 24.3182 15.0346 24.834 15.4441 25.0714L15.4465 25.073C15.4348 25.0907 15.424 25.1093 15.4136 25.129C15.3779 25.1963 15.3523 25.2699 15.3377 25.3471Z" fill="#606161"/>
<path d="M19.0134 27.5511L18.3039 27.1696C18.3039 27.1696 17.3325 26.5606 16.483 26.0323C16.5178 25.9927 16.5483 25.9488 16.5739 25.9013C16.5942 25.8635 16.6112 25.8234 16.6245 25.7817C17.4728 26.3091 18.44 26.9153 18.44 26.9153L19.1284 27.2852C19.1116 27.3088 19.0962 27.3336 19.0823 27.3594C19.0503 27.4186 19.0271 27.4832 19.0134 27.5511Z" fill="#606161"/>
<path d="M20.1329 28.0425L20.138 28.0328C20.3039 27.7204 20.2102 27.3101 19.9279 27.1182C19.6851 26.953 19.3816 27.0027 19.1959 27.2183C19.1832 27.2322 19.1715 27.2471 19.1606 27.2627L18.4697 26.8902C18.4697 26.8902 17.4995 26.28 16.6473 25.7484C16.6502 25.743 16.6507 25.7372 16.6525 25.7323C16.7008 25.5705 16.6963 25.3927 16.6399 25.2288C16.5834 25.0649 16.4784 24.9249 16.3424 24.8325C16.2065 24.74 16.048 24.7008 15.8936 24.7213C15.7393 24.7418 15.5985 24.8208 15.4949 24.9451C15.4781 24.9653 15.4625 24.9866 15.4479 25.0089L15.4456 25.0073C15.0375 24.7712 14.5279 24.2582 14.4717 24.1614C14.437 24.1025 14.4368 23.9943 14.4797 23.8666C14.4808 23.8646 14.4815 23.8633 14.4825 23.8614C14.6505 23.6337 14.8418 23.607 15.1053 23.5782C15.3397 23.5526 15.9646 23.7578 16.2023 23.8396L16.2693 23.8624C16.3641 23.8949 16.9475 23.9684 17.3655 24.0179C17.6541 24.052 17.9359 24.1514 18.1933 24.3097C18.3051 24.3788 18.4342 24.4586 18.5686 24.5422C18.8159 24.6963 19.0832 24.8648 19.3043 25.0106C19.8931 25.3987 20.342 25.9414 20.3667 25.9707C20.3914 26.0001 20.4106 26.4239 20.4339 26.577C20.4572 26.7301 20.5821 27.1395 20.5821 27.1395C20.5821 27.1395 20.6553 27.2015 20.5287 27.5726C20.5256 27.5784 20.5247 27.5849 20.5222 27.5909C20.4509 27.7929 20.3118 27.9542 20.1329 28.0425Z" fill="#3D8D99"/>
<path d="M14.603 23.7782C14.7094 23.9369 14.8557 24.0604 15.0072 24.1641C15.0796 24.2168 15.1578 24.2587 15.2396 24.2885C15.3213 24.3119 15.4047 24.3254 15.4883 24.3289C15.7209 24.3482 15.9534 24.3689 16.1858 24.3909C16.2867 24.4003 16.3891 24.4105 16.486 24.4468C16.5786 24.4815 16.6633 24.5386 16.7471 24.5953L17.422 25.0522C18.0609 25.4847 18.8174 25.6996 19.4732 26.0967C19.7907 26.289 20.0988 26.5006 20.3961 26.7305C20.3099 26.5975 20.2415 26.452 20.193 26.2989C20.1793 26.2557 20.1673 26.2081 20.1803 26.166C20.192 26.1285 20.2225 26.1014 20.2397 26.0663C20.2714 26.0014 20.253 25.916 20.2124 25.8532C20.1718 25.7904 20.1123 25.7465 20.0544 25.704C19.5534 25.3352 19.052 24.9672 18.5503 24.5997C18.3502 24.4536 18.1489 24.3071 17.9319 24.1964C17.2103 23.829 16.3911 23.8912 15.6214 23.7024C15.4406 23.6583 15.2609 23.5996 15.0777 23.5832C14.8945 23.5668 14.7459 23.6585 14.603 23.7782Z" fill="url(#paint5_linear)"/>
<path d="M18.5899 24.5314C18.5739 24.5401 18.5388 24.533 18.479 24.5057C18.0911 24.3288 17.2058 24.3879 16.9011 24.3183C16.5965 24.2486 16.2137 23.8628 16.2137 23.8628C16.2161 23.8507 16.2191 23.8389 16.2228 23.8272L16.2899 23.8501C16.3847 23.8826 16.9686 23.9562 17.3869 24.0057C17.6757 24.0399 17.9577 24.1394 18.2153 24.298C18.3271 24.3677 18.4557 24.4472 18.5899 24.5314Z" fill="#606161"/>
<path d="M17.1116 24.5655C17.1007 24.5669 17.0906 24.5721 17.0829 24.5804C17.0751 24.5887 17.07 24.5996 17.0684 24.6115C17.0667 24.6235 17.0686 24.6359 17.0737 24.647C17.0788 24.658 17.0869 24.6672 17.0968 24.6731C17.5878 24.9612 19.147 25.8728 19.3062 25.939C19.4959 26.0181 19.8899 26.2362 20.02 26.151C20.15 26.0658 20.1883 25.8961 20.1883 25.8961C20.1883 25.8961 19.1739 24.9152 18.536 24.6669C18.0355 24.4715 17.4166 24.5268 17.1116 24.5655Z" fill="#606161"/>
<path d="M15.1225 23.9331C15.1225 23.9331 15.7224 23.867 15.8263 23.9044C15.9302 23.9418 16.4778 24.3393 16.4778 24.3393C16.4778 24.3393 16.2417 24.3611 16.1254 24.3324C16.009 24.3037 15.2402 24.0464 15.1225 23.9331Z" fill="url(#paint6_linear)"/>
<path d="M15.7398 25.9836C15.9978 26.1597 16.3262 26.0769 16.4734 25.7986C16.6206 25.5204 16.5308 25.152 16.2728 24.9759C16.0148 24.7998 15.6864 24.8826 15.5392 25.1609C15.392 25.4392 15.4818 25.8075 15.7398 25.9836Z" fill="#606161"/>
<path d="M15.7398 25.9836C15.9978 26.1597 16.3262 26.0769 16.4734 25.7986C16.6206 25.5204 16.5308 25.152 16.2728 24.9759C16.0148 24.7998 15.6864 24.8826 15.5392 25.1609C15.392 25.4392 15.4818 25.8075 15.7398 25.9836Z" fill="#606161"/>
<path d="M15.8171 25.8508C16.0018 25.9769 16.237 25.9176 16.3424 25.7183C16.4478 25.5191 16.3835 25.2553 16.1987 25.1292C16.014 25.0031 15.7788 25.0624 15.6734 25.2617C15.568 25.4609 15.6324 25.7247 15.8171 25.8508Z" fill="#3D8D99"/>
<path d="M19.3374 28.1669C19.5804 28.3328 19.8898 28.2548 20.0284 27.9927C20.167 27.7305 20.0824 27.3836 19.8394 27.2177C19.5964 27.0518 19.287 27.1298 19.1484 27.3919C19.0098 27.6541 19.0944 28.001 19.3374 28.1669Z" fill="#606161"/>
<path d="M19.3374 28.1669C19.5804 28.3328 19.8898 28.2548 20.0284 27.9927C20.167 27.7305 20.0824 27.3836 19.8394 27.2177C19.5964 27.0518 19.287 27.1298 19.1484 27.3919C19.0098 27.6541 19.0944 28.001 19.3374 28.1669Z" fill="#606161"/>
<path d="M19.4107 28.0417C19.5847 28.1605 19.8062 28.1047 19.9055 27.917C20.0048 27.7293 19.9442 27.4808 19.7702 27.362C19.5961 27.2432 19.3746 27.2991 19.2753 27.4868C19.176 27.6745 19.2366 27.9229 19.4107 28.0417Z" fill="#3D8D99"/>
<path d="M15.8466 25.7986C16 25.9033 16.1952 25.854 16.2827 25.6886C16.3702 25.5232 16.3168 25.3042 16.1635 25.1995C16.0101 25.0948 15.8148 25.144 15.7273 25.3094C15.6398 25.4749 15.6932 25.6939 15.8466 25.7986Z" fill="#606161"/>
<path d="M19.4489 27.9727C19.588 28.0677 19.765 28.023 19.8444 27.873C19.9238 27.723 19.8753 27.5244 19.7362 27.4294C19.5971 27.3345 19.42 27.3791 19.3407 27.5292C19.2613 27.6792 19.3098 27.8778 19.4489 27.9727Z" fill="#606161"/>
<path d="M25.0807 29.1862L24.528 28.8341L24.0614 28.9781L23.882 28.8639L25.6977 28.3297L25.85 28.4267L25.0428 29.6032L24.8643 29.4895L25.0807 29.1862ZM24.7229 28.7748L25.1714 29.0605L25.5603 28.5174L24.7229 28.7748Z" fill="#3D8D99"/>
<path d="M26.5964 30.0563C26.4413 30.1364 26.2824 30.1733 26.1197 30.1673C25.9583 30.1612 25.8056 30.1123 25.6618 30.0208C25.506 29.9215 25.4365 29.8056 25.4534 29.6732C25.4709 29.5411 25.5727 29.4144 25.7589 29.293L25.8851 29.2108C26.007 29.1313 26.136 29.0753 26.272 29.0427C26.4086 29.0105 26.5417 29.0039 26.6713 29.023C26.8015 29.0417 26.9195 29.0847 27.0252 29.152C27.1653 29.2413 27.2387 29.3383 27.2451 29.4431C27.2522 29.5475 27.1939 29.6489 27.0703 29.7474L26.8954 29.636C26.9848 29.5583 27.0276 29.488 27.0237 29.4251C27.0204 29.3626 26.9734 29.3025 26.8828 29.2448C26.7717 29.174 26.6435 29.145 26.4984 29.1579C26.3539 29.1711 26.2062 29.2269 26.0555 29.3251L25.9284 29.4079C25.7861 29.5007 25.7027 29.5936 25.6784 29.6865C25.6542 29.7794 25.6958 29.8601 25.8033 29.9286C25.9 29.9901 25.9956 30.0232 26.0902 30.0277C26.186 30.0322 26.2964 30.0046 26.4215 29.9449L26.5964 30.0563Z" fill="#3D8D99"/>
<path d="M27.8052 30.8263C27.6501 30.9063 27.4913 30.9433 27.3286 30.9372C27.1671 30.9312 27.0145 30.8823 26.8707 30.7907C26.7148 30.6915 26.6453 30.5756 26.6622 30.4431C26.6797 30.3111 26.7816 30.1843 26.9678 30.063L27.0939 29.9808C27.2159 29.9013 27.3448 29.8453 27.4808 29.8127C27.6174 29.7805 27.7505 29.7739 27.8801 29.793C28.0103 29.8117 28.1283 29.8547 28.234 29.922C28.3742 30.0113 28.4475 30.1083 28.454 30.2131C28.4611 30.3174 28.4028 30.4189 28.2791 30.5174L28.1042 30.406C28.1937 30.3283 28.2364 30.258 28.2325 30.1951C28.2292 30.1326 28.1823 30.0725 28.0917 30.0148C27.9805 29.944 27.8524 29.915 27.7072 29.9279C27.5627 29.9411 27.4151 29.9968 27.2643 30.0951L27.1373 30.1779C26.9949 30.2707 26.9116 30.3635 26.8873 30.4564C26.863 30.5493 26.9046 30.63 27.0122 30.6985C27.1088 30.7601 27.2044 30.7931 27.299 30.7977C27.3948 30.8022 27.5053 30.7746 27.6303 30.7149L27.8052 30.8263Z" fill="#3D8D99"/>
<path d="M28.9794 31.3292L28.4076 30.965L27.9427 31.268L28.6069 31.6911L28.4655 31.7833L27.6272 31.2494L28.9391 30.3944L29.7683 30.9225L29.6259 31.0153L28.9708 30.598L28.5491 30.8728L29.1209 31.237L28.9794 31.3292Z" fill="#3D8D99"/>
<path d="M29.6556 31.7877C29.549 31.6649 29.4925 31.5616 29.4861 31.4778C29.4809 31.394 29.524 31.3223 29.6153 31.2628C29.7186 31.1955 29.8453 31.1662 29.9953 31.1751C30.1466 31.1839 30.2886 31.2307 30.4215 31.3154C30.5122 31.3731 30.5754 31.4358 30.6112 31.5035C30.6477 31.5716 30.6546 31.638 30.632 31.7025C30.61 31.7675 30.5627 31.8236 30.49 31.871L30.3151 31.7596C30.3944 31.7079 30.4312 31.6513 30.4255 31.5896C30.4204 31.5275 30.3716 31.467 30.2792 31.4081C30.1934 31.3535 30.1074 31.3231 30.0212 31.317C29.9363 31.3109 29.8605 31.3295 29.7938 31.373C29.7403 31.4078 29.7176 31.4518 29.7257 31.505C29.735 31.5581 29.779 31.6295 29.8577 31.7191C29.937 31.8091 29.9888 31.8858 30.0132 31.9494C30.0388 32.0129 30.0418 32.0701 30.0221 32.1211C30.003 32.1724 29.9602 32.2198 29.8935 32.2633C29.7872 32.3326 29.6602 32.3616 29.5126 32.3504C29.3655 32.3388 29.2222 32.2886 29.0827 32.1997C28.9921 32.1419 28.9246 32.0769 28.8803 32.0046C28.8366 31.9319 28.8233 31.8622 28.8405 31.7958C28.8583 31.7297 28.9053 31.6718 28.9816 31.6221L29.1565 31.7335C29.0772 31.7851 29.0438 31.8447 29.0561 31.9122C29.0697 31.9797 29.1257 32.0447 29.2241 32.1075C29.316 32.166 29.405 32.1987 29.4911 32.2055C29.5773 32.2124 29.6525 32.1949 29.7168 32.1531C29.7811 32.1112 29.808 32.0644 29.7975 32.0129C29.7877 31.9609 29.7403 31.8859 29.6556 31.7877Z" fill="#3D8D99"/>
<path d="M30.7575 32.4896C30.6509 32.3668 30.5944 32.2635 30.588 32.1796C30.5828 32.0958 30.6259 32.0242 30.7172 31.9647C30.8205 31.8973 30.9472 31.8681 31.0972 31.877C31.2485 31.8858 31.3906 31.9326 31.5235 32.0172C31.6141 32.075 31.6773 32.1377 31.7132 32.2054C31.7496 32.2735 31.7565 32.3399 31.7339 32.4044C31.7119 32.4694 31.6646 32.5255 31.5919 32.5729L31.417 32.4615C31.4963 32.4098 31.5331 32.3531 31.5274 32.2914C31.5223 32.2294 31.4735 32.1689 31.3811 32.11C31.2953 32.0554 31.2093 32.025 31.1232 32.0189C31.0382 32.0128 30.9624 32.0314 30.8957 32.0749C30.8422 32.1097 30.8195 32.1537 30.8276 32.2068C30.8369 32.26 30.8809 32.3313 30.9596 32.421C31.0389 32.511 31.0907 32.5877 31.1151 32.6512C31.1407 32.7148 31.1437 32.772 31.124 32.8229C31.105 32.8743 31.0621 32.9217 30.9954 32.9651C30.8891 33.0344 30.7621 33.0635 30.6145 33.0523C30.4674 33.0407 30.3241 32.9904 30.1846 32.9015C30.094 32.8438 30.0265 32.7788 29.9822 32.7064C29.9385 32.6337 29.9253 32.5641 29.9424 32.4976C29.9602 32.4316 30.0073 32.3737 30.0835 32.3239L30.2584 32.4353C30.1791 32.487 30.1457 32.5466 30.158 32.6141C30.1716 32.6815 30.2276 32.7466 30.3261 32.8093C30.4179 32.8678 30.5069 32.9005 30.5931 32.9074C30.6792 32.9143 30.7545 32.8968 30.8187 32.8549C30.883 32.813 30.9099 32.7663 30.8994 32.7147C30.8896 32.6628 30.8422 32.5877 30.7575 32.4896Z" fill="#3D8D99"/>
<path d="M32.733 33.9651C32.5779 34.0451 32.4191 34.0821 32.2564 34.076C32.0949 34.0699 31.9423 34.0211 31.7985 33.9295C31.6426 33.8302 31.5731 33.7144 31.59 33.5819C31.6075 33.4498 31.7094 33.3231 31.8956 33.2018L32.0217 33.1195C32.1437 33.0401 32.2726 32.984 32.4086 32.9515C32.5452 32.9193 32.6783 32.9127 32.8079 32.9318C32.9381 32.9504 33.0561 32.9935 33.1618 33.0608C33.302 33.1501 33.3753 33.2471 33.3818 33.3519C33.3889 33.4562 33.3306 33.5577 33.2069 33.6562L33.032 33.5448C33.1215 33.467 33.1642 33.3967 33.1603 33.3339C33.157 33.2714 33.1101 33.2113 33.0195 33.1536C32.9083 33.0828 32.7802 33.0538 32.635 33.0666C32.4905 33.0799 32.3429 33.1356 32.1921 33.2339L32.0651 33.3167C31.9227 33.4095 31.8394 33.5023 31.8151 33.5952C31.7908 33.6881 31.8324 33.7688 31.94 33.8373C32.0366 33.8989 32.1322 33.9319 32.2268 33.9365C32.3227 33.941 32.4331 33.9134 32.5581 33.8537L32.733 33.9651Z" fill="#3D8D99"/>
<path d="M33.626 34.6291L33.0732 34.277L32.6067 34.4211L32.4273 34.3068L34.243 33.7727L34.3952 33.8697L33.5881 35.0462L33.4096 34.9325L33.626 34.6291ZM33.2682 34.2177L33.7167 34.5034L34.1056 33.9603L33.2682 34.2177Z" fill="#3D8D99"/>
<path d="M34.7803 35.1217L34.4704 34.9243L33.9397 35.2701L33.7648 35.1587L35.0767 34.3037L35.5135 34.5819C35.6621 34.6766 35.7426 34.7712 35.7551 34.8659C35.7682 34.9609 35.7104 35.0503 35.5819 35.1341C35.5002 35.1873 35.4067 35.2195 35.3013 35.2305C35.1965 35.242 35.0895 35.2323 34.9804 35.2015L34.7335 35.7618L34.7226 35.7688L34.536 35.6499L34.7803 35.1217ZM34.6119 34.8321L34.8792 35.0023C34.9656 35.0573 35.0564 35.0865 35.1516 35.0899C35.2474 35.0936 35.3325 35.0712 35.407 35.0227C35.4881 34.9698 35.5258 34.9137 35.5201 34.8544C35.515 34.7954 35.4669 34.7365 35.3756 34.6776L35.1092 34.5079L34.6119 34.8321Z" fill="#3D8D99"/>
<path d="M34.9093 35.8877L36.2212 35.0327L36.5936 35.2699C36.7084 35.343 36.7847 35.4241 36.8224 35.5132C36.8602 35.6023 36.8564 35.6923 36.811 35.7834C36.7662 35.8749 36.6837 35.9602 36.5636 36.0392L36.4798 36.0938C36.3561 36.1745 36.2235 36.2298 36.0821 36.2597C35.9412 36.29 35.8012 36.2929 35.6619 36.2684C35.5232 36.2443 35.3941 36.195 35.2745 36.1204L34.9093 35.8877ZM36.2528 35.2363L35.2248 35.9064L35.4078 36.023C35.5419 36.1084 35.6876 36.1477 35.8448 36.141C36.0026 36.1347 36.1581 36.0817 36.3112 35.9818L36.3878 35.9319C36.5368 35.8348 36.6171 35.7369 36.6287 35.6383C36.6415 35.5396 36.5839 35.4487 36.4558 35.3656L36.2528 35.2363Z" fill="#3D8D99"/>
<path d="M34.9425 46.4428L6.33319 27.9256C6.01763 27.7216 6.05723 27.3707 6.42105 27.1293C6.78487 26.8934 7.33679 26.8685 7.65235 27.0724L36.2616 45.5896C36.5772 45.7935 36.5376 46.1445 36.1725 46.3859C35.8087 46.6231 35.258 46.6467 34.9425 46.4428Z" fill="#3D8D99"/>
<path d="M18.2985 38.6214L4.05389 29.4016C3.73834 29.1963 3.77794 28.8398 4.14176 28.604C4.50681 28.3681 5.05749 28.3432 5.37305 28.5471L19.6177 37.7668C19.9332 37.9708 19.8936 38.3217 19.5298 38.5631C19.1648 38.799 18.6141 38.8253 18.2985 38.6214Z" fill="#3D8D99"/>
<path d="M32.7974 48.0104L22.4805 41.3349C22.165 41.1296 22.2046 40.7731 22.5696 40.5372C22.9335 40.3014 23.4854 40.2764 23.8009 40.4804L34.1166 47.1573C34.4321 47.3612 34.3925 47.7122 34.0275 47.9536C33.6636 48.1825 33.1117 48.2088 32.7974 48.0104Z" fill="#3D8D99"/>
</g>
<defs>
<linearGradient id="paint0_linear" x1="19.433" y1="46.6146" x2="48.4797" y2="1.12606" gradientUnits="userSpaceOnUse">
<stop offset="0.01"/>
<stop offset="0.13" stop-opacity="0.69"/>
<stop offset="1" stop-opacity="0"/>
</linearGradient>
<linearGradient id="paint1_linear" x1="16228.8" y1="3563.95" x2="9263.66" y2="15620.9" gradientUnits="userSpaceOnUse">
<stop offset="0.01"/>
<stop offset="0.13" stop-opacity="0.69"/>
<stop offset="1" stop-opacity="0"/>
</linearGradient>
<linearGradient id="paint2_linear" x1="76095.8" y1="-25145" x2="89143.5" y2="-31445" gradientUnits="userSpaceOnUse">
<stop offset="0.01"/>
<stop offset="0.13" stop-opacity="0.69"/>
<stop offset="1" stop-opacity="0"/>
</linearGradient>
<linearGradient id="paint3_linear" x1="94716.1" y1="-33374.9" x2="112728" y2="-41486.4" gradientUnits="userSpaceOnUse">
<stop offset="0.01"/>
<stop offset="0.13" stop-opacity="0.69"/>
<stop offset="1" stop-opacity="0"/>
</linearGradient>
<linearGradient id="paint4_linear" x1="73737.1" y1="-26362.6" x2="86784.5" y2="-32663" gradientUnits="userSpaceOnUse">
<stop offset="0.01"/>
<stop offset="0.13" stop-opacity="0.69"/>
<stop offset="1" stop-opacity="0"/>
</linearGradient>
<linearGradient id="paint5_linear" x1="20.4043" y1="26.6198" x2="14.6247" y2="24.4056" gradientUnits="userSpaceOnUse">
<stop offset="0.0753056" stop-color="#3D8D99"/>
<stop offset="0.450849" stop-color="#F7F7F7" stop-opacity="0.11"/>
<stop offset="0.954067" stop-color="#3D8D99"/>
</linearGradient>
<linearGradient id="paint6_linear" x1="16.3735" y1="24.2943" x2="15.3159" y2="24.0414" gradientUnits="userSpaceOnUse">
<stop stop-color="white" stop-opacity="0.53"/>
<stop offset="0.827526" stop-color="#3D8D99"/>
</linearGradient>
<clipPath id="clip0">
<rect width="64" height="64" fill="white"/>
</clipPath>
</defs>
</svg>
