<svg width="48" height="40" viewBox="0 0 48 40" fill="none" xmlns="http://www.w3.org/2000/svg">
<path d="M43.2 39.2996H39.8C38.7 39.2996 37.8 38.3996 37.8 37.2996V34.5996H45.2V37.2996C45.2 38.3996 44.3 39.2996 43.2 39.2996Z" fill="#828282"/>
<path d="M37.7 36.9H43.8C44.3 36.9 44.7 36.8 45.1 36.6V34.5H37.7V36.9Z" fill="#707070"/>
<path d="M4.70001 39.2996H8.10001C9.20001 39.2996 10.1 38.3996 10.1 37.2996V34.5996H2.70001V37.2996C2.70001 38.3996 3.60001 39.2996 4.70001 39.2996Z" fill="#828282"/>
<path d="M10.1 36.9H4.00001C3.50001 36.9 3.10001 36.8 2.70001 36.6V34.5H10.1V36.9Z" fill="#707070"/>
<path d="M6.5 16.7998H2.5C1.1 16.7998 0 15.6998 0 14.2998C0 12.8998 1.1 11.7998 2.5 11.7998H6.5V16.7998Z" fill="#707070"/>
<path d="M41.5 16.7998H45.5C46.9 16.7998 48 15.6998 48 14.2998C48 12.8998 46.9 11.7998 45.5 11.7998H41.5V16.7998Z" fill="#707070"/>
<path d="M37.1 2.0998C28.5 0.199805 19.5 0.199805 10.8 2.0998C8.6 2.5998 6.8 4.69981 6.3 7.09981C5.2 12.3998 4.1 17.3998 3 22.0998C16.9 22.0998 30.9 22.0998 44.8 22.0998C43.7 17.3998 42.6 12.3998 41.5 7.09981C41.1 4.79981 39.2 2.5998 37.1 2.0998Z" fill="#3D8D99"/>
<path d="M41.2 15.3002C40.7 12.9002 40.1 10.3002 39.5 7.5002C39.2 5.9002 37.9 4.4002 36.6 4.1002C32.4 3.2002 28.2 2.7002 23.9 2.7002C23.2 2.7002 22.6 2.7002 21.9 2.7002C20.9 2.7002 19.9 2.8002 18.8 2.9002C17.8 3.0002 16.8 3.1002 15.8 3.2002C15.1 3.3002 14.4 3.4002 13.7 3.5002C13 3.8002 12.1 4.0002 11.3 4.2002C9.99999 4.5002 8.69999 5.9002 8.39999 7.5002C8.19999 8.7002 7.89999 9.9002 7.69999 11.0002C7.49999 12.0002 7.29999 13.0002 7.09999 13.9002C6.99999 14.4002 6.89999 14.8002 6.79999 15.3002H41.2Z" fill="#F1FBFD"/>
<path d="M15.9 3.39941L7 13.9994C7.2 13.0994 7.4 12.0994 7.6 11.0994L13.8 3.69941C14.5 3.59941 15.2 3.49941 15.9 3.39941Z" fill="white"/>
<path d="M11.5 15.2998L22 2.7998C21 2.7998 20 2.8998 18.9 2.9998L8.59998 15.2998H11.5Z" fill="white"/>
<path d="M44.8 35.3998H3.00001C1.60001 35.3998 0.500006 34.0998 0.700006 32.6998V23.0998C1.30001 19.6998 4.20001 17.2998 7.60001 17.2998H40.2C43.6 17.2998 46.5 19.6998 47.1 23.0998V32.6998C47.4 34.0998 46.3 35.3998 44.8 35.3998Z" fill="#CDD6E0"/>
<path d="M44.8 35.3998H3.00001C1.60001 35.3998 0.500006 34.0998 0.700006 32.6998V23.0998C0.900006 21.7998 1.50001 20.5998 2.40001 19.6998C3.70001 18.1998 5.60001 17.2998 7.60001 17.2998H40.2C42.3 17.2998 44.2 18.1998 45.4 19.6998C46.2 20.5998 46.8 21.7998 47 23.0998V32.6998C47.4 34.0998 46.3 35.3998 44.8 35.3998Z" fill="#3D8D99"/>
<path d="M9.2 31.9C11.5196 31.9 13.4 30.0196 13.4 27.7C13.4 25.3804 11.5196 23.5 9.2 23.5C6.8804 23.5 5 25.3804 5 27.7C5 30.0196 6.8804 31.9 9.2 31.9Z" fill="#F4FFF9"/>
<path d="M38.7 31.9C41.0196 31.9 42.9 30.0196 42.9 27.7C42.9 25.3804 41.0196 23.5 38.7 23.5C36.3804 23.5 34.5 25.3804 34.5 27.7C34.5 30.0196 36.3804 31.9 38.7 31.9Z" fill="#F4FFF9"/>
<path d="M38.7 24.3994C40.9 24.3994 42.6 25.9994 42.8 28.0994C42.8 27.8994 42.8 27.7994 42.8 27.5994C42.8 25.2994 40.9 23.3994 38.6 23.3994C36.3 23.3994 34.4 25.2994 34.4 27.5994C34.4 27.7994 34.4 27.8994 34.4 28.0994C34.8 26.0994 36.5 24.3994 38.7 24.3994Z" fill="#F4FFF9"/>
<path d="M9.20002 24.3994C11.4 24.3994 13.1 25.9994 13.3 28.0994C13.3 27.8994 13.3 27.7994 13.3 27.5994C13.3 25.2994 11.4 23.3994 9.10002 23.3994C6.80002 23.3994 4.90002 25.2994 4.90002 27.5994C4.90002 27.7994 4.90002 27.8994 4.90002 28.0994C5.30002 26.0994 7.00002 24.3994 9.20002 24.3994Z" fill="#F4FFF9"/>
<path d="M28.4 30.4994C25.4 30.1994 22.4 30.1994 19.4 30.4994C17.8 30.6994 16.4 29.3994 16.4 27.8994V27.7994C16.4 26.3994 17.4 25.0994 18.9 24.9994C22.2 24.6994 25.6 24.6994 28.9 24.9994C30.3 25.0994 31.4 26.3994 31.4 27.7994C31.4 27.7994 31.4 27.7994 31.4 27.8994C31.4 29.4994 30 30.6994 28.4 30.4994Z" fill="#707070"/>
</svg>
