<svg width="48" height="48" viewBox="0 0 48 48" fill="none" xmlns="http://www.w3.org/2000/svg">
<path d="M46.9 21.3998L26.6 1.0998C25.2 -0.300195 22.8 -0.300195 21.4 1.0998L1.09999 21.3998C-0.300012 22.7998 -0.300012 25.1998 1.09999 26.5998C2.49999 27.9998 4.89999 27.9998 6.29999 26.5998L24 8.8998L41.7 26.6998C43.1 28.0998 45.5 28.0998 46.9 26.6998C48.4 25.1998 48.4 22.8998 46.9 21.3998Z" fill="#3D8D99"/>
<path d="M41.7 47.7994V26.5994L24 8.89941L6.29999 26.5994V47.7994H41.7Z" fill="#F4FFF9"/>
<path d="M29.9 47.7998V38.1998C29.9 34.8998 27.3 32.2998 24 32.2998C20.7 32.2998 18.1 34.8998 18.1 38.1998V47.7998H29.9Z" fill="#3D8D99"/>
<path d="M29.2 48H45.9C47 48 48 47.1 48 45.9V23.6C48 22.5 47.1 21.5 45.9 21.5H29.2C28.1 21.5 27.1 22.4 27.1 23.6V45.9C27.2 47.1 28.1 48 29.2 48Z" fill="#F3F3F3"/>
<path d="M44.5 43.5H30.6V44.8H44.5V43.5Z" fill="#CED6E0"/>
<path d="M44.5 39H30.6V40.3H44.5V39Z" fill="#CED6E0"/>
<path d="M44.5 34.5H30.6V35.8H44.5V34.5Z" fill="#CED6E0"/>
<path d="M44.5 29.7002H30.6V31.0002H44.5V29.7002Z" fill="#CED6E0"/>
<path d="M37.8 25H30.6V26.3H37.8V25Z" fill="#3D8D99"/>
</svg>
