<svg width="63" height="20" viewBox="0 0 63 20" fill="none" xmlns="http://www.w3.org/2000/svg">
<path d="M20.9558 5.58008C22.1291 5.58008 23.0243 5.84941 23.6414 6.38809C24.2585 6.91807 24.567 7.73477 24.567 8.83818V12.7609H22.2595V11.8487C21.9031 12.535 21.2078 12.8782 20.1735 12.8782C19.626 12.8782 19.1523 12.7826 18.7525 12.5915C18.3527 12.4004 18.0485 12.1441 17.8399 11.8226C17.64 11.4924 17.54 11.1188 17.54 10.7018C17.54 10.0328 17.7964 9.51586 18.3092 9.15095C18.822 8.77736 19.6129 8.59056 20.682 8.59056H22.09C22.0465 7.84337 21.5468 7.46977 20.5907 7.46977C20.2518 7.46977 19.9084 7.52625 19.5608 7.6392C19.2131 7.74346 18.9176 7.89116 18.6743 8.0823L17.8399 6.40112C18.231 6.14047 18.7047 5.94064 19.2609 5.80163C19.8259 5.65393 20.3908 5.58008 20.9558 5.58008ZM20.8645 11.3143C21.1513 11.3143 21.4034 11.2448 21.6207 11.1058C21.8379 10.9668 21.9944 10.7626 22.09 10.4933V9.88077H21.021C20.2996 9.88077 19.9389 10.1197 19.9389 10.5975C19.9389 10.8148 20.0214 10.9885 20.1866 11.1188C20.3517 11.2492 20.5777 11.3143 20.8645 11.3143Z" fill="#0070C0"/>
<path d="M28.8814 6.54447C29.1335 6.22301 29.4594 5.98408 29.8592 5.82769C30.2677 5.66262 30.7327 5.58008 31.2542 5.58008V7.80862C31.0282 7.78255 30.8413 7.76952 30.6936 7.76952C30.1634 7.76952 29.7462 7.91288 29.442 8.19959C29.1465 8.4863 28.9988 8.92506 28.9988 9.51586V12.7609H26.5217V5.69737H28.8814V6.54447Z" fill="#0070C0"/>
<path fill-rule="evenodd" clip-rule="evenodd" d="M8.0124 20C8.0124 20 16.0248 12.433 16.0248 8.00949C16.0248 3.58597 12.4375 0 8.0124 0C3.58727 0 0 3.58597 0 8.00949C0 9.58052 1.01063 11.548 2.31404 13.4323L4.80359 4.1074H8.83456C10.0785 4.1074 11.0376 4.38866 11.7118 4.9512C12.3955 5.50403 12.7373 6.27994 12.7373 7.27892C12.7373 8.13241 12.5379 8.87922 12.1391 9.51935C11.7498 10.1498 11.1895 10.6347 10.4584 10.9742C9.73667 11.3136 8.88204 11.4834 7.89448 11.4834H5.67246L4.26249 15.9734C6.17662 18.2663 8.0124 20 8.0124 20Z" fill="#0070C0"/>
<path d="M9.91315 8.96029H6.38226C6.30757 8.96029 6.24646 9.02138 6.24646 9.09605V9.36756C6.24646 9.44222 6.30757 9.50331 6.38226 9.50331H9.91315C9.98784 9.50331 10.049 9.44222 10.049 9.36756V9.09605C10.049 9.02138 9.98784 8.96029 9.91315 8.96029ZM10.4564 6.24521C10.2314 6.24521 10.049 6.42763 10.049 6.65247C10.049 6.71272 10.0625 6.76871 10.0863 6.82047L9.47179 7.1887C9.34108 7.26676 9.17217 7.22264 9.09663 7.09028L8.40489 5.88037C8.4957 5.80571 8.55512 5.69371 8.55512 5.56644C8.55512 5.3416 8.37263 5.15918 8.14771 5.15918C7.92278 5.15918 7.7403 5.3416 7.7403 5.56644C7.7403 5.69371 7.79971 5.80571 7.89053 5.88037L7.19878 7.09028C7.12324 7.22264 6.95349 7.26676 6.82362 7.1887L6.20996 6.82047C6.23288 6.76956 6.24731 6.71272 6.24731 6.65247C6.24731 6.42763 6.06482 6.24521 5.8399 6.24521C5.61498 6.24521 5.43164 6.42763 5.43164 6.65247C5.43164 6.87732 5.61413 7.05974 5.83905 7.05974C5.86112 7.05974 5.88319 7.05634 5.90441 7.05295L6.51807 8.68879H9.77735L10.391 7.05295C10.4122 7.05634 10.4343 7.05974 10.4564 7.05974C10.6813 7.05974 10.8638 6.87732 10.8638 6.65247C10.8638 6.42763 10.6813 6.24521 10.4564 6.24521Z" fill="#0070C0"/>
<rect x="31.2539" y="2.98633" width="2.44446" height="9.77429" fill="#F2D54A"/>
<path d="M41.0119 5.69769H43.4889V12.7612H41.0119V5.69769ZM42.2504 4.91575C41.7985 4.91575 41.4334 4.78977 41.1553 4.53781C40.8772 4.28585 40.7381 3.97307 40.7381 3.59947C40.7381 3.22588 40.8772 2.9131 41.1553 2.66114C41.4334 2.40918 41.7985 2.2832 42.2504 2.2832C42.7024 2.2832 43.0674 2.40484 43.3455 2.64811C43.6236 2.88269 43.7627 3.18678 43.7627 3.56038C43.7627 3.95135 43.6236 4.27716 43.3455 4.53781C43.0674 4.78977 42.7024 4.91575 42.2504 4.91575Z" fill="#F2D54A"/>
<path d="M50.0919 5.5804C50.9698 5.5804 51.6738 5.84105 52.2039 6.36234C52.7428 6.88364 53.0122 7.66993 53.0122 8.72121V12.7612H50.5352V9.12521C50.5352 8.16081 50.1484 7.67861 49.3749 7.67861C48.949 7.67861 48.6057 7.81763 48.345 8.09565C48.0929 8.37367 47.9669 8.79071 47.9669 9.34676V12.7612H45.4898V5.69769H47.8495V6.4666C48.1277 6.17989 48.4579 5.96268 48.8404 5.81498C49.2228 5.65859 49.64 5.5804 50.0919 5.5804Z" fill="#F2D54A"/>
<path d="M62.661 5.69769V11.471C62.661 12.783 62.3047 13.7647 61.592 14.4164C60.8793 15.0767 59.8537 15.4068 58.5152 15.4068C57.8199 15.4068 57.1681 15.3286 56.5597 15.1722C55.9513 15.0159 55.4341 14.7856 55.0082 14.4815L55.9078 12.7482C56.1946 12.9828 56.5553 13.1653 56.9899 13.2956C57.4332 13.4346 57.8677 13.5041 58.2936 13.5041C58.9455 13.5041 59.4235 13.3607 59.7277 13.074C60.0319 12.7873 60.184 12.3616 60.184 11.7969V11.5623C59.706 12.1183 59.0063 12.3963 58.085 12.3963C57.4592 12.3963 56.8812 12.2573 56.3511 11.9793C55.8209 11.6926 55.3994 11.2929 55.0865 10.7803C54.7736 10.259 54.6171 9.65954 54.6171 8.98185C54.6171 8.31286 54.7736 7.72205 55.0865 7.20945C55.3994 6.68815 55.8209 6.28849 56.3511 6.01047C56.8812 5.72376 57.4592 5.5804 58.085 5.5804C59.0932 5.5804 59.832 5.90621 60.3013 6.55783V5.69769H62.661ZM58.6717 10.4284C59.1149 10.4284 59.48 10.2938 59.7668 10.0244C60.0623 9.75511 60.2101 9.40758 60.2101 8.98185C60.2101 8.55613 60.0667 8.21294 59.7798 7.95229C59.493 7.68296 59.1236 7.54829 58.6717 7.54829C58.2197 7.54829 57.846 7.68296 57.5505 7.95229C57.2637 8.21294 57.1203 8.55613 57.1203 8.98185C57.1203 9.40758 57.268 9.75511 57.5635 10.0244C57.859 10.2938 58.2284 10.4284 58.6717 10.4284Z" fill="#F2D54A"/>
<path d="M33.6982 7.89275H36.5501L40.2168 12.5277H37.5393L33.6982 7.89275Z" fill="#F2D54A"/>
<path d="M33.6982 7.89275H36.5501L40.2168 3.25781H37.5393L33.6982 7.89275Z" fill="#F2D54A"/>
</svg>
