<svg width="48" height="48" viewBox="0 0 48 48" fill="none" xmlns="http://www.w3.org/2000/svg">
<path d="M33.2 36.4002H2C0.9 36.4002 0 35.5002 0 34.4002V5.2002C0 4.1002 0.9 3.2002 2 3.2002H33.2C34.3 3.2002 35.2 4.1002 35.2 5.2002V34.4002C35.2 35.5002 34.3 36.4002 33.2 36.4002Z" fill="#F2F2F2"/>
<path d="M33.7 3.2002H1.4C0.6 3.2002 0 3.9002 0 4.7002V11.1002H35.2V4.7002C35.2 3.9002 34.5 3.2002 33.7 3.2002Z" fill="#3D8D99"/>
<path d="M8.90001 9.00039C9.89412 9.00039 10.7 8.1945 10.7 7.20039C10.7 6.20628 9.89412 5.40039 8.90001 5.40039C7.90589 5.40039 7.10001 6.20628 7.10001 7.20039C7.10001 8.1945 7.90589 9.00039 8.90001 9.00039Z" fill="#3D8D99"/>
<path d="M8.90001 7.8C8.20001 7.8 7.60001 7.2 7.60001 6.6V1.2C7.60001 0.6 8.20001 0 8.80001 0H8.90001C9.60001 0 10.1 0.6 10.1 1.2V6.5C10.2 7.3 9.60001 7.8 8.90001 7.8Z" fill="#40596B"/>
<path d="M26.3 9.00039C27.2941 9.00039 28.1 8.1945 28.1 7.20039C28.1 6.20628 27.2941 5.40039 26.3 5.40039C25.3059 5.40039 24.5 6.20628 24.5 7.20039C24.5 8.1945 25.3059 9.00039 26.3 9.00039Z" fill="#3D8D99"/>
<path d="M26.3 7.8C25.6 7.8 25 7.2 25 6.6V1.2C25 0.6 25.6 0 26.3 0H26.4C27.1 0 27.6 0.6 27.6 1.2V6.5C27.6 7.3 27 7.8 26.3 7.8Z" fill="#40596B"/>
<path d="M16.5 13.7002H10.6V19.0002H16.5V13.7002Z" fill="#3D8D99"/>
<path d="M24.5 13.7002H18.6V19.0002H24.5V13.7002Z" fill="#3D8D99"/>
<path d="M32.5 13.7002H26.6V19.0002H32.5V13.7002Z" fill="#3D8D99"/>
<path d="M8.50001 21.1006H2.60001V26.4006H8.50001V21.1006Z" fill="#3D8D99"/>
<path d="M16.5 21.1006H10.6V26.4006H16.5V21.1006Z" fill="#3D8D99"/>
<path d="M24.5 21.1006H18.6V26.4006H24.5V21.1006Z" fill="#3D8D99"/>
<path d="M32.5 21.1006H26.6V26.4006H32.5V21.1006Z" fill="#3D8D99"/>
<path d="M8.50001 28.5H2.60001V33.8H8.50001V28.5Z" fill="#3D8D99"/>
<path d="M16.5 28.5H10.6V33.8H16.5V28.5Z" fill="#3D8D99"/>
<path d="M24.5 28.5H18.6V33.8H24.5V28.5Z" fill="#3D8D99"/>
<path d="M32.6 48.0002C41.1052 48.0002 48 41.1054 48 32.6002C48 24.095 41.1052 17.2002 32.6 17.2002C24.0948 17.2002 17.2 24.095 17.2 32.6002C17.2 41.1054 24.0948 48.0002 32.6 48.0002Z" fill="#3D8D99"/>
<path d="M32.6 44.1C26.2 44.1 21 39 21 32.6C21 26.2 26.2 21 32.6 21C39 21 44.2 26.2 44.2 32.6C44.2 39 39 44.1 32.6 44.1Z" fill="#F4FFF9"/>
<path opacity="0.1" d="M32.6 22.3C38.8 22.3 43.8 27.1 44.1 33.2C44.1 33 44.1 32.8 44.1 32.6C44.2 26.2 39 21 32.6 21C26.2 21 21 26.2 21 32.6C21 32.8 21 33 21 33.2C21.4 27.1 26.4 22.3 32.6 22.3Z" fill="#231F20"/>
<path d="M31.8 31.4998V24.0998C31.8 23.6998 32.1 23.2998 32.6 23.2998C33.1 23.2998 33.4 23.5998 33.4 24.0998V31.4998C33.4 31.8998 33.1 32.2998 32.6 32.2998C32.1 32.2998 31.8 31.8998 31.8 31.4998Z" fill="#3D8D99"/>
<path d="M32.6 31.7998H40C40.4 31.7998 40.8 32.0998 40.8 32.5998C40.8 33.0998 40.5 33.3998 40 33.3998H32.6C32.2 33.3998 31.8 33.0998 31.8 32.5998C31.8 32.0998 32.2 31.7998 32.6 31.7998Z" fill="#3D8D99"/>
<path d="M32.6 34.5996C33.7046 34.5996 34.6 33.7042 34.6 32.5996C34.6 31.495 33.7046 30.5996 32.6 30.5996C31.4954 30.5996 30.6 31.495 30.6 32.5996C30.6 33.7042 31.4954 34.5996 32.6 34.5996Z" fill="#3D8D99"/>
<path d="M32.6 33.7C33.2075 33.7 33.7 33.2075 33.7 32.6C33.7 31.9925 33.2075 31.5 32.6 31.5C31.9925 31.5 31.5 31.9925 31.5 32.6C31.5 33.2075 31.9925 33.7 32.6 33.7Z" fill="#3D8D99"/>
</svg>
