<svg width="80" height="80" viewBox="0 0 80 80" fill="none" xmlns="http://www.w3.org/2000/svg">
<circle cx="40" cy="40" r="40" fill="#DFF1F1"/>
<g clip-path="url(#clip0)">
<path d="M68.4847 72.4722H57.6589V14.9467H68.4847C69.5498 14.9467 70.4132 15.8101 70.4132 16.8752V70.5436C70.4132 71.6087 69.5498 72.4722 68.4847 72.4722Z" fill="#CDCBCB"/>
<path d="M60.6343 14.9467H11.4017C10.3992 14.9467 9.58667 15.6723 9.58667 16.5675V70.6572C9.58667 71.6595 10.3992 72.4722 11.4017 72.4722H60.6343V14.9467Z" fill="#F4FFF9"/>
<path d="M23.8103 20.6725C23.8103 22.2537 22.5285 23.5354 20.9475 23.5354C19.3664 23.5354 18.0846 22.2535 18.0846 20.6725C18.0846 19.0915 19.3664 17.8096 20.9475 17.8096C22.5285 17.8096 23.8103 19.0913 23.8103 20.6725ZM47.768 17.8095C46.1868 17.8095 44.9051 19.0913 44.9051 20.6724C44.9051 22.2534 46.187 23.5352 47.768 23.5352C49.3491 23.5352 50.6308 22.2534 50.6308 20.6724C50.6308 19.0913 49.3491 17.8095 47.768 17.8095Z" fill="white"/>
<path d="M28.9964 14.9554H26.2168C26.2168 12.5447 24.2717 10.615 21.8808 10.615C19.4899 10.615 17.5447 12.5559 17.5447 14.9468C17.5447 17.3377 19.4899 19.283 21.8808 19.283C22.6483 19.283 23.2705 19.9055 23.2705 20.6731C23.2705 21.4406 22.6483 22.0634 21.8808 22.0634C17.9572 22.0634 14.7651 18.8724 14.7651 14.9488C14.7651 11.0252 17.9572 7.83533 21.8808 7.83533C25.8043 7.83533 28.9964 11.0714 28.9964 14.9554ZM50.711 8.06569C50.1229 7.91181 49.5176 7.83368 48.9097 7.83319C44.9861 7.83319 41.7941 11.0242 41.7941 14.9477C41.7941 18.8713 44.9861 22.0628 48.9097 22.0628C49.6772 22.0628 50.2995 21.4403 50.2995 20.6728C50.2995 19.9052 49.6772 19.2829 48.9097 19.2829C46.5187 19.2829 44.5736 17.3377 44.5736 14.9468C44.5736 12.5559 46.5187 10.6107 48.9097 10.6107C49.2827 10.6107 49.6526 10.6622 50.009 10.7552C51.9146 11.2525 53.2456 12.9464 53.2456 14.9554H56.0252C56.0252 11.7411 53.8399 8.88252 50.711 8.06569Z" fill="#149BAF"/>
<rect x="20" y="31.4286" width="30" height="4.28572" rx="2.14286" fill="#149BAF"/>
<rect x="20" y="42.8571" width="30" height="4.28571" rx="2.14286" fill="#149BAF"/>
<rect x="20" y="54.2857" width="30" height="4.28571" rx="2.14286" fill="#149BAF"/>
<path d="M58.4875 63.3656C61.1125 60.4781 62.6875 57.525 62.6875 55.8188C62.6875 51.9469 53.8938 40.5938 43 40.5938C32.1062 40.5938 23.3125 51.9469 23.3125 55.8188C23.3125 59.6906 32.1062 71.0438 43 71.0438C46.0187 71.0438 48.9062 70.1906 51.4656 68.8125L58.4875 73.4062V63.3656Z" fill="#CDCBCB"/>
<path d="M43 65.6625C48.4366 65.6625 52.8438 61.2553 52.8438 55.8188C52.8438 50.3822 48.4366 45.975 43 45.975C37.5634 45.975 33.1562 50.3822 33.1562 55.8188C33.1562 61.2553 37.5634 65.6625 43 65.6625Z" fill="white"/>
<path d="M43 49.9125C42.3438 49.9125 41.7531 50.0438 41.1625 50.175C41.8844 50.7656 42.3438 51.6844 42.3438 52.6688C42.3438 54.5063 40.9 55.95 39.0625 55.95C38.3406 55.95 37.6844 55.6875 37.0938 55.2938V55.7531C37.0938 59.0344 39.7188 61.6594 43 61.6594C46.2812 61.6594 48.9062 59.0344 48.9062 55.7531C48.9062 52.4719 46.2812 49.9125 43 49.9125Z" fill="#CDCBCB"/>
<path d="M57.4875 61.3656C60.1125 58.4781 61.6875 55.525 61.6875 53.8188C61.6875 49.9469 52.8938 38.5938 42 38.5938C31.1062 38.5938 22.3125 49.9469 22.3125 53.8188C22.3125 57.6906 31.1062 69.0438 42 69.0438C45.0187 69.0438 47.9062 68.1906 50.4656 66.8125L57.4875 71.4062V61.3656Z" fill="#3D8D99"/>
<path d="M42 63.6625C47.4366 63.6625 51.8438 59.2553 51.8438 53.8188C51.8438 48.3822 47.4366 43.975 42 43.975C36.5634 43.975 32.1562 48.3822 32.1562 53.8188C32.1562 59.2553 36.5634 63.6625 42 63.6625Z" fill="white"/>
<path d="M42 47.9125C41.3438 47.9125 40.7531 48.0438 40.1625 48.175C40.8844 48.7656 41.3438 49.6844 41.3438 50.6688C41.3438 52.5063 39.9 53.95 38.0625 53.95C37.3406 53.95 36.6844 53.6875 36.0938 53.2938V53.7531C36.0938 57.0344 38.7188 59.6594 42 59.6594C45.2812 59.6594 47.9062 57.0344 47.9062 53.7531C47.9062 50.4719 45.2812 47.9125 42 47.9125Z" fill="#3D8D99"/>
</g>
<defs>
<clipPath id="clip0">
<rect width="68.5714" height="68.5714" fill="white" transform="translate(5.71423 5.71429)"/>
</clipPath>
</defs>
</svg>
