<svg width="80" height="80" viewBox="0 0 80 80" fill="none" xmlns="http://www.w3.org/2000/svg">
<circle cx="40" cy="40" r="40" fill="#DFF1F1"/>
<g clip-path="url(#clip0)">
<path d="M68.4847 72.4722H57.6589V14.9466H68.4847C69.5498 14.9466 70.4132 15.8101 70.4132 16.8752V70.5436C70.4132 71.6087 69.5498 72.4722 68.4847 72.4722Z" fill="#CDCBCB"/>
<path d="M60.6343 14.9466H11.4017C10.3992 14.9466 9.58667 15.6723 9.58667 16.5674V70.6572C9.58667 71.6595 10.3992 72.4722 11.4017 72.4722H60.6343V14.9466Z" fill="#F4FFF9"/>
<path d="M23.8103 20.6725C23.8103 22.2537 22.5285 23.5354 20.9475 23.5354C19.3664 23.5354 18.0846 22.2535 18.0846 20.6725C18.0846 19.0915 19.3664 17.8096 20.9475 17.8096C22.5285 17.8096 23.8103 19.0913 23.8103 20.6725ZM47.768 17.8095C46.1868 17.8095 44.9051 19.0913 44.9051 20.6724C44.9051 22.2534 46.187 23.5352 47.768 23.5352C49.3491 23.5352 50.6308 22.2534 50.6308 20.6724C50.6308 19.0913 49.3491 17.8095 47.768 17.8095Z" fill="white"/>
<path d="M28.9964 14.9553H26.2168C26.2168 12.5446 24.2717 10.615 21.8808 10.615C19.4899 10.615 17.5447 12.5559 17.5447 14.9468C17.5447 17.3377 19.4899 19.283 21.8808 19.283C22.6483 19.283 23.2705 19.9055 23.2705 20.673C23.2705 21.4406 22.6483 22.0633 21.8808 22.0633C17.9572 22.0633 14.7651 18.8724 14.7651 14.9488C14.7651 11.0252 17.9572 7.8353 21.8808 7.8353C25.8043 7.8353 28.9964 11.0714 28.9964 14.9553ZM50.711 8.06566C50.1229 7.91178 49.5176 7.83365 48.9097 7.83316C44.9861 7.83316 41.7941 11.0241 41.7941 14.9477C41.7941 18.8713 44.9861 22.0628 48.9097 22.0628C49.6772 22.0628 50.2995 21.4403 50.2995 20.6728C50.2995 19.9052 49.6772 19.2828 48.9097 19.2828C46.5187 19.2828 44.5736 17.3377 44.5736 14.9468C44.5736 12.5559 46.5187 10.6107 48.9097 10.6107C49.2827 10.6107 49.6526 10.6621 50.009 10.7552C51.9146 11.2525 53.2456 12.9464 53.2456 14.9553H56.0252C56.0252 11.7411 53.8399 8.88249 50.711 8.06566Z" fill="#149BAF"/>
<rect x="20" y="31.4286" width="30" height="4.28572" rx="2.14286" fill="#149BAF"/>
<rect x="20" y="42.8571" width="30" height="4.28571" rx="2.14286" fill="#149BAF"/>
<rect x="20" y="54.2857" width="30" height="4.28571" rx="2.14286" fill="#149BAF"/>
<path d="M49.8567 45.8945L33.7262 65.7676C33.6274 65.8879 33.5501 66.0254 33.4942 66.1715L31.3973 71.6758C30.9333 72.8961 32.0934 74.1035 33.202 73.5406L38.3669 70.9152C38.5129 70.8422 38.6504 70.7348 38.7622 70.6101L56.4137 50.7586C56.7188 50.4191 56.8477 49.9379 56.7618 49.4738C56.4481 47.7723 55.2063 43.9867 50.4669 45.4648C50.2305 45.5379 50.02 45.6926 49.8567 45.8945Z" fill="#CDCBCB"/>
<path d="M38.3667 70.9195L33.2019 73.5449C32.0976 74.1078 30.9331 72.9004 31.3972 71.6801L33.4941 66.1758L38.3667 70.9195Z" fill="#CDCBCB"/>
<path d="M49.5 45.9074C51.7086 43.484 60.2122 34.4691 65.2825 32.252C67.2032 31.4098 69.618 32.8836 69.0036 35.277C68.1528 38.5727 56.2719 52.1379 56.2719 52.1379C56.027 52.4516 55.0989 52.6707 54.8196 52.5547C54.725 52.516 55.0774 52.3141 55.0086 52.2023L54.9571 51.9918C54.9141 51.8199 54.8454 51.6523 54.7508 51.502C53.5649 49.6328 51.9106 48.3781 49.7235 47.377C49.4829 47.2652 48.675 47.2695 48.675 47.2695C48.675 46.6594 49.1563 46.2855 49.5 45.9074Z" fill="#CDCBCB"/>
<path d="M31.7841 70.7906L31.2083 72.2172C30.8044 73.2141 31.8142 74.198 32.7681 73.7383L34.2634 73.025L31.7841 70.7906Z" fill="#CDCBCB"/>
<path d="M44.3824 61.2559L44.1633 61.0539C44.091 60.9876 44.0475 60.8958 44.0419 60.7979C44.0363 60.7 44.069 60.6038 44.1332 60.5297L52.4734 51.0207C52.5049 50.985 52.5432 50.9559 52.586 50.9351C52.6288 50.9142 52.6753 50.902 52.7228 50.8992C52.7703 50.8964 52.8179 50.9031 52.8629 50.9188C52.9079 50.9345 52.9493 50.9589 52.9847 50.9906L53.2039 51.1926C53.3543 51.3301 53.3672 51.5664 53.234 51.7168L44.8937 61.2301C44.8622 61.266 44.8239 61.2952 44.7809 61.316C44.7379 61.3368 44.6912 61.3487 44.6435 61.3512C44.5958 61.3536 44.5481 61.3464 44.5033 61.33C44.4584 61.3136 44.4173 61.2884 44.3824 61.2559Z" fill="#CDCBCB"/>
<path d="M49.6461 45.6625C51.8547 43.2734 60.6332 33.8246 65.7035 31.6332C67.6242 30.8039 70.0391 32.2477 69.4246 34.6023C68.5738 37.8465 56.8305 51.4375 56.8305 51.4375C56.5039 51.85 55.8422 51.8156 55.5715 51.3687C54.3684 49.3793 52.5121 47.8324 50.2906 46.9602L49.9254 46.8184C49.4398 46.625 49.2981 46.0363 49.6461 45.6625Z" fill="#CDCBCB"/>
<path d="M60.977 47.3898C63.8603 43.9137 66.2063 41.4816 68.8661 37.3309C69.1067 36.9527 69.6997 37.5027 69.4677 37.9023C67.5212 41.3398 62.8806 46.6121 61.6903 47.9699C61.3896 48.3094 60.7235 47.6949 60.977 47.3898Z" fill="#CDCBCB"/>
<path d="M69.3557 38.1473C69.1409 38.4437 68.7198 38.5082 68.4233 38.2934L67.7788 37.825C67.6364 37.7202 67.5412 37.5635 67.5138 37.3889C67.4865 37.2142 67.5292 37.0359 67.6327 36.8926C67.8475 36.5961 68.2686 36.5316 68.5651 36.7465L69.2096 37.2148C69.5104 37.4297 69.5749 37.8508 69.3557 38.1473Z" fill="#CDCBCB"/>
<path d="M33.4941 66.1715C33.4941 66.1715 33.5672 66.0039 33.6016 65.9523C33.6273 65.9051 33.7262 65.7676 33.7262 65.7676L38.7621 70.6102C38.7621 70.6102 38.6246 70.7477 38.5645 70.7906C38.5086 70.8336 38.3668 70.9152 38.3668 70.9152L33.4941 66.1715Z" fill="#CDCBCB"/>
<path d="M47.8567 43.8945L31.7262 63.7676C31.6274 63.8879 31.5501 64.0254 31.4942 64.1715L29.3973 69.6758C28.9333 70.8961 30.0934 72.1035 31.202 71.5406L36.3669 68.9152C36.5129 68.8422 36.6504 68.7348 36.7622 68.6101L54.4137 48.7586C54.7188 48.4191 54.8477 47.9379 54.7618 47.4738C54.4481 45.7723 53.2063 41.9867 48.4669 43.4648C48.2305 43.5379 48.02 43.6926 47.8567 43.8945Z" fill="#4B9387"/>
<path d="M36.3667 68.9195L31.2019 71.5449C30.0976 72.1078 28.9331 70.9004 29.3972 69.6801L31.4941 64.1758L36.3667 68.9195Z" fill="#DFF1F1"/>
<path d="M47.5 43.9074C49.7086 41.484 58.2122 32.4691 63.2825 30.252C65.2032 29.4098 67.618 30.8836 67.0036 33.277C66.1528 36.5727 54.2719 50.1379 54.2719 50.1379C54.027 50.4516 53.0989 50.6707 52.8196 50.5547C52.725 50.516 53.0774 50.3141 53.0086 50.2023L52.9571 49.9918C52.9141 49.8199 52.8454 49.6523 52.7508 49.502C51.5649 47.6328 49.9106 46.3781 47.7235 45.377C47.4829 45.2652 46.675 45.2695 46.675 45.2695C46.675 44.6594 47.1563 44.2855 47.5 43.9074Z" fill="#707070"/>
<path d="M29.7841 68.7906L29.2083 70.2172C28.8044 71.2141 29.8142 72.198 30.7681 71.7383L32.2634 71.025L29.7841 68.7906Z" fill="#707070"/>
<path d="M42.3824 59.2559L42.1633 59.0539C42.091 58.9876 42.0475 58.8958 42.0419 58.7979C42.0363 58.7 42.069 58.6038 42.1332 58.5297L50.4734 49.0207C50.5049 48.985 50.5432 48.9559 50.586 48.9351C50.6288 48.9142 50.6753 48.902 50.7228 48.8992C50.7703 48.8964 50.8179 48.9031 50.8629 48.9188C50.9079 48.9345 50.9493 48.9589 50.9847 48.9906L51.2039 49.1926C51.3543 49.3301 51.3672 49.5664 51.234 49.7168L42.8937 59.2301C42.8622 59.266 42.8239 59.2952 42.7809 59.316C42.7379 59.3368 42.6912 59.3487 42.6435 59.3512C42.5958 59.3536 42.5481 59.3464 42.5033 59.33C42.4584 59.3136 42.4173 59.2884 42.3824 59.2559Z" fill="#FAFAFA"/>
<path d="M47.6461 43.6625C49.8547 41.2734 58.6332 31.8246 63.7035 29.6332C65.6242 28.8039 68.0391 30.2477 67.4246 32.6023C66.5738 35.8465 54.8305 49.4375 54.8305 49.4375C54.5039 49.85 53.8422 49.8156 53.5715 49.3687C52.3684 47.3793 50.5121 45.8324 48.2906 44.9602L47.9254 44.8184C47.4398 44.625 47.2981 44.0363 47.6461 43.6625Z" fill="#3D8D99"/>
<path d="M58.977 45.3898C61.8603 41.9137 64.2063 39.4816 66.8661 35.3309C67.1067 34.9527 67.6997 35.5027 67.4677 35.9023C65.5212 39.3398 60.8806 44.6121 59.6903 45.9699C59.3896 46.3094 58.7235 45.6949 58.977 45.3898Z" fill="#707070"/>
<path d="M67.3557 36.1473C67.1409 36.4437 66.7198 36.5082 66.4233 36.2934L65.7788 35.825C65.6364 35.7202 65.5412 35.5635 65.5138 35.3889C65.4865 35.2142 65.5292 35.0359 65.6327 34.8926C65.8475 34.5961 66.2686 34.5316 66.5651 34.7465L67.2096 35.2148C67.5104 35.4297 67.5749 35.8508 67.3557 36.1473Z" fill="#707070"/>
<path d="M31.4941 64.1715C31.4941 64.1715 31.5672 64.0039 31.6016 63.9523C31.6273 63.9051 31.7262 63.7676 31.7262 63.7676L36.7621 68.6102C36.7621 68.6102 36.6246 68.7477 36.5645 68.7906C36.5086 68.8336 36.3668 68.9152 36.3668 68.9152L31.4941 64.1715Z" fill="white"/>
</g>
<defs>
<clipPath id="clip0">
<rect width="68.5714" height="68.5714" fill="white" transform="translate(5.71423 5.71428)"/>
</clipPath>
</defs>
</svg>
