<svg width="56" height="56" viewBox="0 0 56 56" fill="none" xmlns="http://www.w3.org/2000/svg">
<circle cx="28" cy="28" r="28" fill="#DFF1F1"/>
<path d="M47.9393 50.7305H40.3613V10.4626H47.9393C48.6849 10.4626 49.2893 11.0671 49.2893 11.8126V49.3805C49.2893 50.1261 48.6849 50.7305 47.9393 50.7305Z" fill="#CDCBCB"/>
<path d="M42.4441 10.4626H7.98119C7.27947 10.4626 6.71069 10.9706 6.71069 11.5972V49.46C6.71069 50.1616 7.27947 50.7305 7.98119 50.7305H42.4441V10.4626Z" fill="#F4FFF9"/>
<path d="M16.6672 14.4707C16.6672 15.5776 15.77 16.4747 14.6632 16.4747C13.5565 16.4747 12.6592 15.5775 12.6592 14.4707C12.6592 13.364 13.5565 12.4667 14.6632 12.4667C15.77 12.4667 16.6672 13.3639 16.6672 14.4707ZM33.4376 12.4666C32.3308 12.4666 31.4336 13.3639 31.4336 14.4706C31.4336 15.5774 32.3309 16.4746 33.4376 16.4746C34.5444 16.4746 35.4416 15.5774 35.4416 14.4706C35.4416 13.3639 34.5444 12.4666 33.4376 12.4666Z" fill="white"/>
<path d="M20.2975 10.4687H18.3518C18.3518 8.78125 16.9902 7.4305 15.3166 7.4305C13.6429 7.4305 12.2813 8.78912 12.2813 10.4627C12.2813 12.1364 13.6429 13.4981 15.3166 13.4981C15.8539 13.4981 16.2894 13.9338 16.2894 14.4711C16.2894 15.0084 15.8539 15.4443 15.3166 15.4443C12.5701 15.4443 10.3356 13.2107 10.3356 10.4642C10.3356 7.71765 12.5701 5.48472 15.3166 5.48472C18.0631 5.48472 20.2975 7.75 20.2975 10.4687ZM35.4978 5.64597C35.0861 5.53825 34.6623 5.48356 34.2368 5.48322C31.4903 5.48322 29.2559 7.7169 29.2559 10.4634C29.2559 13.2099 31.4903 15.444 34.2368 15.444C34.7741 15.444 35.2097 15.0082 35.2097 14.4709C35.2097 13.9337 34.7741 13.498 34.2368 13.498C32.5631 13.498 31.2016 12.1364 31.2016 10.4627C31.2016 8.78912 32.5631 7.4275 34.2368 7.4275C34.4979 7.4275 34.7568 7.4635 35.0063 7.52865C36.3403 7.87675 37.272 9.0625 37.272 10.4687H39.2177C39.2177 8.21875 37.6879 6.21775 35.4978 5.64597Z" fill="#149BAF"/>
<rect x="14" y="22" width="21" height="3" rx="1.5" fill="#149BAF"/>
<rect x="14" y="30" width="21" height="3" rx="1.5" fill="#149BAF"/>
<rect x="14" y="38" width="21" height="3" rx="1.5" fill="#149BAF"/>
</svg>
