<svg width="129" height="98" viewBox="0 0 129 98" fill="none" xmlns="http://www.w3.org/2000/svg">
<g clip-path="url(#clip0)">
<path opacity="0.15" d="M64.498 95.2522C89.5547 95.2522 109.867 74.7782 109.867 49.5222C109.867 24.2662 89.5547 3.79224 64.498 3.79224C39.4413 3.79224 19.1289 24.2662 19.1289 49.5222C19.1289 74.7782 39.4413 95.2522 64.498 95.2522Z" fill="#00937F"/>
<path d="M54.4207 91.4544C51.4452 91.7141 48.4559 91.3539 45.4693 91.3288C40.0198 91.2841 34.6285 92.3592 29.2843 93.4287C28.636 93.56 27.8104 93.9342 27.9295 94.5904C27.9988 94.9618 28.3617 95.1908 28.697 95.3639C35.4347 98.8434 43.4524 98.0336 51.0103 97.5979C69.697 96.5089 88.5168 98.2207 107.123 96.1626C107.974 96.0704 108.938 95.8833 109.378 95.1573C109.885 94.3056 109.342 93.1383 108.495 92.644C107.647 92.1498 106.611 92.1163 105.624 92.1079L91.4008 91.9934L98.9337 87.3439C97.252 86.3581 95.1603 86.5648 93.2266 86.8049C85.8544 87.7153 78.1968 89.3517 70.7664 89.3545C65.0205 89.3433 60.1168 90.491 54.4207 91.4544Z" fill="url(#paint0_linear)"/>
<path d="M58.7424 4.72209C58.7424 4.72209 58.7424 8.1429 57.3572 8.26577C57.2655 8.35151 57.1923 8.45542 57.1423 8.57098C57.0922 8.68654 57.0664 8.81128 57.0664 8.93737C57.0664 9.06346 57.0922 9.18819 57.1423 9.30375C57.1923 9.41932 57.2655 9.52322 57.3572 9.60896C58.0249 10.3434 58.1468 12.664 58.3269 13.2141C58.507 13.7642 60.8203 13.9485 62.6322 13.5213C64.444 13.094 63.9038 18.2853 63.9038 18.2853C63.9038 18.2853 66.4499 18.0395 67.9043 16.6963L67.4195 11.5051C67.4195 11.5051 70.1457 8.15407 69.0569 6.00664C67.9681 3.8592 66.1562 1.60845 63.1752 2.40152C60.1942 3.19459 58.9447 2.8567 58.7424 4.72209Z" fill="url(#paint1_linear)"/>
<path d="M60.9437 0.555662C60.9437 0.555662 57.8962 2.15577 58.3173 3.44032C58.7384 4.72487 60.8107 5.2722 61.531 6.67682C62.2513 8.08145 62.8027 9.12026 62.8027 9.12026C62.8027 9.12026 63.4703 8.45006 63.4399 8.32719C63.4094 8.20432 64.0771 6.76898 64.8639 7.07615C65.6507 7.38333 65.3487 9.12026 64.6533 9.60895C63.9579 10.0976 65.623 11.5944 65.623 11.5944L66.6508 12.3288C66.6508 12.3288 67.2049 12.2981 68.097 11.5637C68.9891 10.8293 70.6431 9.3297 70.3993 7.6542C70.2118 6.45635 69.9415 5.27317 69.5903 4.11331C69.5515 3.99044 69.0611 2.15856 68.8644 1.91282C66.2879 -1.35441 60.9437 0.555662 60.9437 0.555662Z" fill="black"/>
<path d="M69.5334 2.64451C70.021 1.57498 72.3039 1.21754 73.8664 1.97431C74.3734 2.21726 74.8111 2.6864 75.6838 3.62468C77.1605 5.20803 77.3987 6.01785 78.5928 6.5568C79.2162 6.83605 79.8506 6.92821 79.8368 7.01477C79.8118 7.15719 78.0747 6.54564 77.3821 7.25772C76.7754 7.88045 77.5761 8.88016 77.5317 10.955C77.5317 11.5135 77.4431 13.795 75.9276 15.2303C75.1658 15.948 74.1296 16.378 73.8664 16.1155C73.5395 15.7916 74.5978 14.6048 74.1684 14.01C73.739 13.4152 72.556 14.0407 72.0767 13.3984C71.8855 13.1387 71.9548 12.8706 71.988 12.206C71.988 12.206 72.0047 11.8626 71.8661 9.79331C71.808 8.91647 71.3508 7.77992 70.4421 5.54871C69.55 3.36498 69.3339 3.08573 69.5334 2.64451Z" fill="black"/>
<path d="M63.9662 16.3305C63.9662 16.3305 68.4184 14.6997 70.0751 16.6098C71.7319 18.5199 69.6789 25.2442 69.7565 27.5257C69.8341 29.8071 68.87 36.0763 69.7565 37.9501C70.6431 39.8238 63.2875 44.7107 61.5116 43.2558C59.7357 41.8009 59.6277 40.6085 59.5473 40.3656C59.467 40.1226 59.2952 28.8437 59.1318 28.5198C58.9683 28.1959 58.0735 26.2383 58.32 25.1688C58.5666 24.0993 63.0298 18.7237 63.9662 16.3305Z" fill="#00937F"/>
<path d="M63.7383 10.0055C63.7383 10.0055 62.0428 13.3146 62.2173 16.1937C62.3919 19.0727 59.7239 22.8705 59.7239 22.8705C59.7239 22.8705 58.5243 24.7443 58.4052 26.5762C58.286 28.4081 58.6129 39.2346 63.392 39.8741C68.171 40.5136 65.7524 40.1282 65.7524 40.1282" stroke="black" stroke-width="0.871944" stroke-miterlimit="10" stroke-linecap="round"/>
<path d="M69.7564 37.9557C70.5322 39.5921 65.0162 43.5407 62.4258 43.5211C64.5092 42.231 66.3238 40.4131 65.8584 39.4273C64.9718 37.5535 65.936 31.2816 65.8584 29.0001C65.7808 26.7186 67.8337 19.9999 66.177 18.087C65.5675 17.3833 64.5812 17.1571 63.5755 17.1543C63.722 16.8879 63.8524 16.6128 63.9662 16.3305C63.9662 16.3305 68.4183 14.6997 70.075 16.6098C71.7318 18.5199 69.6789 25.2442 69.7564 27.5257C69.834 29.8071 68.8699 36.0819 69.7564 37.9557Z" fill="url(#paint2_linear)"/>
<path d="M90.9662 72.7362L89.6059 76.4251L73.7118 70.3849L73.3655 70.2146L73.2491 70.1587C73.1466 70.1057 73.0303 70.0471 72.9028 69.9772L72.3903 69.698C72.1548 69.5695 71.8971 69.4187 71.6173 69.2651L71.4345 69.1562C70.4197 68.5634 69.4358 67.9184 68.4867 67.2238C68.4174 67.1736 68.3482 67.1233 68.2789 67.0674C68.0767 66.9167 67.8744 66.7603 67.6749 66.6011C67.3203 66.3219 66.974 66.0296 66.636 65.7243C66.5224 65.6209 66.4088 65.5176 66.298 65.4087C66.1872 65.2998 66.021 65.1434 65.8797 65.0038C65.3786 64.5124 64.9155 63.9831 64.4945 63.4204C64.3449 63.2166 64.2008 63.0099 64.0706 62.7977C63.9819 62.6581 63.896 62.5185 63.8157 62.3705C63.8157 62.3705 62.0814 67.8689 62.0814 68.2766C62.0814 68.6843 61.1865 78.7624 57.9534 84.7105L57.2137 86.5814L57.1444 86.7518L53.9141 85.1238L55.3686 61.34L60.0783 41.5133C60.0783 41.5133 66.8327 40.6588 69.7583 37.9696C69.7583 37.9696 72.1991 42.1248 72.562 42.9179C72.925 43.711 73.1161 49.5166 72.0079 52.9988C70.8998 56.4811 75.5625 63.9538 76.9366 64.1158C78.3107 64.2777 90.9662 72.7362 90.9662 72.7362Z" fill="#00937F"/>
<path d="M90.9662 72.7362L90.2847 74.5737L89.6032 76.4167L73.7118 70.3849L73.3655 70.2146L73.2491 70.1587C73.1466 70.1057 73.0303 70.0471 72.9028 69.9772C72.7754 69.9074 72.5759 69.8069 72.3903 69.698C72.1548 69.5723 71.8944 69.4187 71.6173 69.2651L71.4345 69.1562C70.4185 68.5654 69.4345 67.9204 68.4867 67.2238C68.4174 67.1736 68.3482 67.1233 68.2789 67.0674C68.0767 66.9194 67.8744 66.7631 67.6749 66.6011C67.3203 66.3219 66.974 66.0296 66.636 65.7243C66.5224 65.6209 66.4088 65.5176 66.298 65.4087C66.1872 65.2998 66.021 65.1434 65.8797 65.0038C65.3801 64.5109 64.9171 63.9817 64.4945 63.4204C64.3476 63.2166 64.2036 63.0072 64.0706 62.7977C63.9819 62.6581 63.896 62.5185 63.8157 62.3705C63.8157 62.3705 62.0814 67.8689 62.0814 68.2766C62.0814 68.6843 61.1865 78.7624 57.9534 84.7105L57.2137 86.5814L57.1444 86.7518L53.9141 85.1238L55.3686 61.34L60.0783 41.5133C60.0783 41.5133 63.7298 41.0525 66.8272 39.7373C67.8947 39.3158 68.8852 38.7185 69.7583 37.9696C69.7583 37.9696 72.1991 42.1248 72.562 42.9179C72.925 43.711 73.1161 49.5166 72.0079 52.9988C70.8998 56.4811 75.5625 63.9538 76.9366 64.1158C78.3107 64.2777 90.9662 72.7362 90.9662 72.7362Z" fill="url(#paint3_linear)"/>
<path d="M75.0497 31.0721C73.7393 31.8121 69.4617 35.1464 69.4617 35.1464L69.2318 33.0129L68.8633 29.6144L70.0823 23.4905L70.6558 20.6058L75.5844 27.8859C75.5844 27.8859 76.8173 30.078 75.0497 31.0721Z" fill="url(#paint4_linear)"/>
<path d="M54.1099 85.2159L53.168 87.1958C53.168 87.1958 54.3399 88.8155 56.016 88.5362L56.9857 86.4754L54.1099 85.2159Z" fill="url(#paint5_linear)"/>
<path d="M56.6367 88.7625L56.2543 92.4095C56.2543 92.4095 55.5257 93.3031 54.8691 93.0601C54.2125 92.8172 51.7163 92.3257 51.2675 92.2447C50.8187 92.1637 45.0035 90.6977 43.5906 87.8465C43.2498 87.1596 43.1889 86.7295 43.3135 86.4503C43.6986 85.6125 45.8984 86.481 46.8182 86.6122C48.0316 86.7826 50.5555 86.8915 50.5555 86.8915C50.5555 86.8915 52.5364 86.4726 52.9215 86.6625C53.3066 86.8524 53.4756 87.221 53.7526 87.6203C54.0297 88.0196 55.6504 88.782 55.9939 88.5363C56.3375 88.2905 56.6367 88.7625 56.6367 88.7625Z" fill="#00937F"/>
<path d="M89.8164 75.8554C89.8164 75.8554 91.5646 77.1149 91.6255 77.88C91.6865 78.6452 93.8059 78.5753 93.8973 76.8663C93.9685 75.8893 93.7236 74.9154 93.1992 74.0906L90.9828 72.7362L89.8164 75.8554Z" fill="url(#paint6_linear)"/>
<path d="M97.9185 85.0764C97.7689 85.378 97.2231 85.7829 96.7438 86.0956L96.6856 86.1347C96.2839 86.3916 95.9459 86.5787 95.9459 86.5787C95.411 86.5235 94.8903 86.3722 94.4083 86.1319C93.7628 85.7633 93.965 83.7695 93.9124 83.1579C93.8598 82.5464 91.6628 79.941 91.2971 79.2875C90.9314 78.6341 91.6323 77.8745 91.6323 77.8745L92.3609 73.5741L92.6546 72.982C92.9649 72.3844 95.8074 72.4515 95.8074 72.4515C95.8074 72.4515 96.5748 72.5324 96.9377 72.982C97.3007 73.4316 97.1815 76.361 97.14 76.7687C97.0984 77.1764 97.5029 80.2314 97.9074 80.9239C98.3119 81.6165 98.1955 84.5067 97.9185 85.0764Z" fill="#00937F"/>
<path d="M68.1346 21.5442C68.1346 21.5442 63.5301 29.5251 62.6796 30.5444C61.8291 31.5636 59.1666 30.9102 57.5902 30.2651C56.0139 29.6201 50.6004 28.5142 50.2347 28.5533C49.869 28.5924 47.8936 28.5952 47.7413 28.5533C47.5889 28.5114 46.6497 27.495 46.4225 27.3721C46.3394 27.3274 46.3449 27.1068 46.3782 26.7857C46.4391 26.2272 46.5777 25.3894 46.4502 24.6857C46.3963 24.3739 46.4461 24.0529 46.5919 23.7726C46.7377 23.4923 46.9713 23.2685 47.2564 23.1359C47.2564 23.1359 48.9547 23.6246 49.2373 23.2588C49.4257 23.0158 49.8939 22.9348 50.2624 23.027C50.4364 23.0596 50.5906 23.1599 50.6918 23.3062C50.7749 23.4459 50.9162 23.7419 51.0658 24.0658C51.3429 24.6857 51.6615 25.4229 51.6615 25.4229C51.6615 25.4229 57.7149 27.1906 59.8177 26.3752C61.9205 25.5598 63.1423 19.07 63.9734 16.7885C64.8045 14.5071 67.7191 14.6718 67.7191 14.6718C68.0707 14.7413 68.4086 14.8686 68.7192 15.0488C71.365 16.6489 68.1346 21.5442 68.1346 21.5442Z" fill="url(#paint7_linear)"/>
<path opacity="0.44" d="M67.138 20.0725C67.138 20.0725 62.5307 28.0563 61.6829 29.0727C60.8352 30.0892 58.1672 29.4414 56.5908 28.7935C55.0144 28.1456 49.6009 27.0426 49.238 27.0845C48.8751 27.1264 46.8942 27.1236 46.7446 27.0845C46.6098 27.0021 46.4868 26.9015 46.3789 26.7857C46.4399 26.2272 46.5784 25.3894 46.4509 24.6857C46.397 24.3739 46.4468 24.0529 46.5926 23.7726C46.7384 23.4924 46.972 23.2685 47.2571 23.1359C47.2571 23.1359 48.9554 23.6246 49.238 23.2588C49.4264 23.0158 49.8946 22.9348 50.2631 23.027C50.4764 23.5129 50.662 23.9485 50.662 23.9485L51.0665 24.0602C51.3436 24.6801 51.6622 25.4174 51.6622 25.4174C51.6622 25.4174 57.7156 27.185 59.8184 26.3696C61.9212 25.5542 63.143 19.0644 63.9741 16.783C64.8052 14.5015 67.7198 14.6718 67.7198 14.6718C68.0714 14.7413 68.4093 14.8687 68.7199 15.0488C69.0856 17.1181 67.138 20.0725 67.138 20.0725Z" fill="url(#paint8_linear)"/>
<path d="M69.4085 2.39603C69.4715 2.35953 69.5419 2.33804 69.6144 2.3332C69.6869 2.32836 69.7596 2.3403 69.8268 2.36811C69.9847 2.46026 69.993 2.67807 70.0041 2.86238C70.0274 3.1555 70.0756 3.44606 70.1482 3.73085C70.2091 3.91074 70.2186 4.10423 70.1759 4.28935C70.1636 4.33312 70.1426 4.37393 70.1143 4.40934C70.0859 4.44475 70.0508 4.47402 70.0109 4.4954C69.9711 4.51679 69.9274 4.52984 69.8824 4.53378C69.8374 4.53772 69.7922 4.53247 69.7492 4.51833C69.6488 4.4496 69.5784 4.34465 69.5525 4.22512C69.4306 3.88443 69.306 3.54375 69.2118 3.19469C69.1494 3.0246 69.1084 2.84728 69.0899 2.6669C69.0871 2.47701 69.2561 2.45747 69.4085 2.39603Z" fill="#00937F"/>
<path d="M63.8101 62.3509C63.8101 62.3509 62.0758 67.8494 62.0758 68.2571C62.0758 68.6648 61.1865 78.7625 57.9534 84.7105L57.2137 86.5815L56.9837 86.4837L53.9141 85.1238L55.3686 61.34L60.0783 41.5133L63.8101 62.3509Z" fill="url(#paint9_linear)"/>
<path d="M90.966 72.7362L90.2845 74.5737C90.2845 74.5737 77.4351 68.5503 75.1467 66.6653C72.8583 64.7804 67.9712 59.6394 68.3868 55.5512C68.8023 51.463 66.8242 39.7149 66.8242 39.7149C67.8917 39.2935 68.8822 38.6961 69.7554 37.9473C69.7554 37.9473 72.1961 42.1025 72.5591 42.8956C72.922 43.6886 73.1132 49.4943 72.005 52.9765C70.8968 56.4587 75.5595 63.9315 76.9336 64.0934C78.3078 64.2554 90.966 72.7362 90.966 72.7362Z" fill="url(#paint10_linear)"/>
<path d="M72.2349 30.3991C71.4537 30.7929 69.2318 33.0129 69.2318 33.0129L68.8633 29.6144L70.0823 23.4905C70.0823 23.4905 72.2987 26.9225 72.7004 27.8859C73.1021 28.8493 73.0162 30.0054 72.2349 30.3991Z" fill="url(#paint11_linear)"/>
<path d="M56.2583 92.4094C56.2583 92.4094 55.5296 93.303 54.873 93.0601C54.2164 92.8171 51.7203 92.3256 51.2714 92.2446C50.8226 92.1637 45.0074 90.6976 43.5945 87.8464C43.2537 87.1595 43.1928 86.7294 43.3174 86.4502C43.6222 86.964 45.0822 89.0807 49.2047 90.3848C53.9422 91.8872 56.2583 92.4094 56.2583 92.4094Z" fill="url(#paint12_linear)"/>
<path d="M97.9164 85.0763C97.7668 85.3779 97.221 85.7828 96.7417 86.0956C97.5452 85.6097 97.0437 81.0356 96.5229 79.5164C96.002 77.9973 95.8164 72.4514 95.8164 72.4514C95.8164 72.4514 96.5838 72.5324 96.9467 72.982C97.3097 73.4316 97.1905 76.3609 97.149 76.7686C97.1074 77.1763 97.5119 80.2313 97.9164 80.9239C98.3209 81.6164 98.1934 84.5066 97.9164 85.0763Z" fill="url(#paint13_linear)"/>
<path d="M64.1493 8.5283C64.1493 8.5283 64.1493 7.88602 64.4097 7.75477C64.6701 7.62353 64.9832 7.92512 64.8391 8.29373C64.6951 8.66234 64.3709 9.52522 64.1493 9.38001C63.9276 9.2348 63.7088 9.32695 64.1493 8.5283Z" fill="url(#paint14_linear)"/>
<path d="M64.413 9.54478C64.667 9.54478 64.8729 9.33724 64.8729 9.08123C64.8729 8.82522 64.667 8.61768 64.413 8.61768C64.159 8.61768 63.9531 8.82522 63.9531 9.08123C63.9531 9.33724 64.159 9.54478 64.413 9.54478Z" fill="black"/>
<path d="M64.4523 9.35205C64.6007 9.35205 64.721 9.23077 64.721 9.08118C64.721 8.93158 64.6007 8.8103 64.4523 8.8103C64.3039 8.8103 64.1836 8.93158 64.1836 9.08118C64.1836 9.23077 64.3039 9.35205 64.4523 9.35205Z" fill="#00937F"/>
<path d="M63.9606 9.12036L63.6836 9.8855C63.6836 9.8855 63.6836 10.0866 63.8581 10.0307C64.1081 9.88139 64.3421 9.7064 64.5563 9.50852L63.9606 9.12036Z" fill="black"/>
<path d="M66.2783 38.489L65.0472 38.7348C64.4753 38.8489 64.1035 39.4087 64.2167 39.9851L64.6246 42.0615C64.7379 42.6379 65.2932 43.0126 65.8651 42.8985L67.0962 42.6528C67.6681 42.5387 68.0399 41.9789 67.9266 41.4025L67.5187 39.3261C67.4055 38.7497 66.8501 38.3749 66.2783 38.489Z" fill="#00937F"/>
<path d="M66.2783 38.489L65.0472 38.7348C64.4753 38.8489 64.1035 39.4087 64.2167 39.9851L64.6246 42.0615C64.7379 42.6379 65.2932 43.0126 65.8651 42.8985L67.0962 42.6528C67.6681 42.5387 68.0399 41.9789 67.9266 41.4025L67.5187 39.3261C67.4055 38.7497 66.8501 38.3749 66.2783 38.489Z" fill="url(#paint15_linear)"/>
<path d="M66.2584 38.691L65.2012 38.902C64.7104 38.9999 64.3913 39.4804 64.4885 39.9751L64.8382 41.7557C64.9354 42.2504 65.4121 42.572 65.9029 42.474L66.9601 42.2631C67.4509 42.1651 67.77 41.6846 67.6728 41.1899L67.323 39.4094C67.2258 38.9147 66.7492 38.593 66.2584 38.691Z" fill="url(#paint16_linear)"/>
<path d="M66.6441 39.1264L65.0135 39.4518C64.7838 39.4976 64.6344 39.7218 64.6797 39.9525C64.725 40.1833 64.9479 40.3331 65.1776 40.2873L66.8082 39.9619C67.0379 39.916 67.1873 39.6918 67.142 39.4611C67.0966 39.2304 66.8737 39.0805 66.6441 39.1264Z" fill="#00937F"/>
<path opacity="0.62" d="M66.5116 39.2093L65.1228 39.4865C64.9277 39.5254 64.8009 39.7164 64.8395 39.9131C64.8781 40.1098 65.0676 40.2377 65.2627 40.1987L66.6515 39.9215C66.8466 39.8826 66.9734 39.6916 66.9348 39.4949C66.8962 39.2983 66.7067 39.1704 66.5116 39.2093Z" fill="white"/>
</g>
<defs>
<linearGradient id="paint0_linear" x1="68.4974" y1="77.3858" x2="69.9245" y2="170.792" gradientUnits="userSpaceOnUse">
<stop stop-opacity="0"/>
<stop offset="0.91" stop-opacity="0.8"/>
<stop offset="1"/>
</linearGradient>
<linearGradient id="paint1_linear" x1="57.0497" y1="10.2624" x2="69.3034" y2="10.2624" gradientUnits="userSpaceOnUse">
<stop stop-color="#ECC4D7"/>
<stop offset="0.42" stop-color="#EFD4D1"/>
<stop offset="1" stop-color="#F2EAC9"/>
</linearGradient>
<linearGradient id="paint2_linear" x1="1610.75" y1="4052.94" x2="3256.81" y2="4116.56" gradientUnits="userSpaceOnUse">
<stop stop-opacity="0"/>
<stop offset="0.91" stop-opacity="0.8"/>
<stop offset="1"/>
</linearGradient>
<linearGradient id="paint3_linear" x1="6877.81" y1="13074" x2="11833.2" y2="13074" gradientUnits="userSpaceOnUse">
<stop stop-opacity="0"/>
<stop offset="0.91" stop-opacity="0.8"/>
<stop offset="1"/>
</linearGradient>
<linearGradient id="paint4_linear" x1="1768.97" y1="2110.67" x2="1952.95" y2="2110.67" gradientUnits="userSpaceOnUse">
<stop stop-color="#ECC4D7"/>
<stop offset="0.42" stop-color="#EFD4D1"/>
<stop offset="1" stop-color="#F2EAC9"/>
</linearGradient>
<linearGradient id="paint5_linear" x1="745.965" y1="1275.81" x2="798.572" y2="1275.81" gradientUnits="userSpaceOnUse">
<stop stop-color="#ECC4D7"/>
<stop offset="0.42" stop-color="#EFD4D1"/>
<stop offset="1" stop-color="#F2EAC9"/>
</linearGradient>
<linearGradient id="paint6_linear" x1="1373.99" y1="1836.97" x2="1434.41" y2="1836.97" gradientUnits="userSpaceOnUse">
<stop stop-color="#ECC4D7"/>
<stop offset="0.42" stop-color="#EFD4D1"/>
<stop offset="1" stop-color="#F2EAC9"/>
</linearGradient>
<linearGradient id="paint7_linear" x1="3717.45" y1="2079.22" x2="5695.18" y2="2079.22" gradientUnits="userSpaceOnUse">
<stop stop-color="#ECC4D7"/>
<stop offset="0.42" stop-color="#EFD4D1"/>
<stop offset="1" stop-color="#F2EAC9"/>
</linearGradient>
<linearGradient id="paint8_linear" x1="46.3678" y1="22.1362" x2="68.7559" y2="22.1362" gradientUnits="userSpaceOnUse">
<stop stop-color="white" stop-opacity="0"/>
<stop offset="0.84" stop-color="white" stop-opacity="0.84"/>
<stop offset="0.97" stop-color="white"/>
</linearGradient>
<linearGradient id="paint9_linear" x1="2220.17" y1="17050.2" x2="-4457.36" y2="10420.2" gradientUnits="userSpaceOnUse">
<stop stop-opacity="0"/>
<stop offset="0.91" stop-opacity="0.8"/>
<stop offset="1"/>
</linearGradient>
<linearGradient id="paint10_linear" x1="5638.03" y1="9027.9" x2="7741.75" y2="9027.9" gradientUnits="userSpaceOnUse">
<stop stop-opacity="0"/>
<stop offset="0.91" stop-opacity="0.8"/>
<stop offset="1"/>
</linearGradient>
<linearGradient id="paint11_linear" x1="1124.31" y1="1344.15" x2="501.736" y2="1437.94" gradientUnits="userSpaceOnUse">
<stop stop-opacity="0"/>
<stop offset="0.91" stop-opacity="0.8"/>
<stop offset="1"/>
</linearGradient>
<linearGradient id="paint12_linear" x1="1938.33" y1="2517.32" x2="2547.54" y2="2517.32" gradientUnits="userSpaceOnUse">
<stop stop-opacity="0"/>
<stop offset="0.91" stop-opacity="0.8"/>
<stop offset="1"/>
</linearGradient>
<linearGradient id="paint13_linear" x1="904.103" y1="4225.19" x2="339.901" y2="4824.04" gradientUnits="userSpaceOnUse">
<stop stop-opacity="0"/>
<stop offset="0.91" stop-opacity="0.8"/>
<stop offset="1"/>
</linearGradient>
<linearGradient id="paint14_linear" x1="281.228" y1="132.531" x2="284.691" y2="132.531" gradientUnits="userSpaceOnUse">
<stop stop-color="#ECC4D7"/>
<stop offset="0.42" stop-color="#EFD4D1"/>
<stop offset="1" stop-color="#F2EAC9"/>
</linearGradient>
<linearGradient id="paint15_linear" x1="833.271" y1="817.332" x2="828.785" y2="874.291" gradientUnits="userSpaceOnUse">
<stop stop-opacity="0"/>
<stop offset="0.91" stop-opacity="0.8"/>
<stop offset="1"/>
</linearGradient>
<linearGradient id="paint16_linear" x1="722.707" y1="643.096" x2="726.561" y2="860.937" gradientUnits="userSpaceOnUse">
<stop stop-opacity="0"/>
<stop offset="0.91" stop-opacity="0.8"/>
<stop offset="1"/>
</linearGradient>
<clipPath id="clip0">
<rect width="129" height="98" fill="white"/>
</clipPath>
</defs>
</svg>
