<svg width="101" height="82" viewBox="0 0 101 82" fill="none" xmlns="http://www.w3.org/2000/svg">
<path opacity="0.18" d="M98.6518 57.5733C96.7608 60.8064 93.1429 62.2681 89.704 63.191C80.8845 65.5518 72.3662 64.5218 63.478 64.7569C59.6245 64.8582 56.0961 67.1088 53.0837 69.7137C50.0712 72.3187 47.3571 75.3701 44.0553 77.5196C36.9717 82.1429 28.2088 82.1161 19.944 81.9494C17.8055 81.9107 15.6401 81.8631 13.5642 81.3004C8.02852 79.8119 3.62919 74.4234 2.69563 68.3205C2.67475 68.1925 2.65686 68.0644 2.64195 67.9394C2.62703 67.8144 2.61809 67.7578 2.60616 67.6655C2.60537 67.6035 2.59838 67.5416 2.58528 67.4809C2.56891 67.4087 2.56189 67.3347 2.5644 67.2606C2.5644 67.1862 2.54054 67.0314 2.53457 66.9153C2.52861 66.7992 2.51071 66.6176 2.50176 66.4509C2.50176 66.302 2.48685 66.1532 2.48387 66.0013V65.3583V64.5932C2.47941 64.3775 2.48837 64.1618 2.51071 63.9472C2.51369 63.9165 2.51369 63.8856 2.51071 63.8549C2.51071 63.6703 2.53457 63.4857 2.54949 63.3012V63.1374C2.55437 63.0179 2.56532 62.8986 2.58229 62.7802C2.60317 62.5539 2.63002 62.3277 2.65686 62.1014C2.68072 61.9287 2.7016 61.7531 2.72546 61.5834L2.74335 61.4465C2.76722 61.2738 2.79406 61.1071 2.8209 60.9344C2.84775 60.7617 2.88354 60.5474 2.91635 60.339C2.94915 60.1306 2.98495 59.952 3.02074 59.7436C3.09232 59.3566 3.16987 58.9636 3.2504 58.5766C3.29215 58.3801 3.33093 58.1866 3.37268 57.9812L3.50392 57.3857C3.54866 57.1893 3.59041 56.9958 3.63813 56.7903C3.82902 55.9568 4.03482 55.1262 4.23465 54.2926C4.31817 53.9562 4.40168 53.6198 4.48221 53.2834C4.51204 53.1643 4.53888 53.0422 4.56871 52.9261L4.72977 52.2384C4.84012 51.7859 4.94451 51.3274 5.04592 50.869C5.09663 50.6427 5.14435 50.4135 5.19207 50.1843C5.23979 49.955 5.28453 49.7288 5.33225 49.4995L5.42769 48.9994L5.49928 48.5975C5.60665 48.0021 5.69812 47.4146 5.77367 46.8351C5.79754 46.6624 5.81841 46.4897 5.83929 46.3171C5.84228 46.2814 5.84228 46.2455 5.83929 46.2099C5.84532 46.1021 5.85727 45.9948 5.87508 45.8884C5.89 45.7336 5.90491 45.5907 5.91684 45.4299C5.91982 45.3913 5.91982 45.3524 5.91684 45.3138C5.91684 45.1471 5.94368 44.9744 5.95561 44.8017V44.6023C5.95561 44.4504 5.97351 44.3046 5.97649 44.1498C6.00234 43.4769 6.00234 42.8031 5.97649 42.1283C5.98142 41.97 5.97143 41.8115 5.94667 41.655C5.81764 40.1777 5.57433 38.7126 5.21891 37.2728C4.94451 36.1117 4.62239 34.9388 4.28238 33.7658C3.02372 29.3687 1.61891 24.9269 2.13192 20.6221C3.0267 13.7213 7.92115 7.50519 13.3942 4.16791C19.4728 0.464452 26.6996 -0.482251 33.6759 0.217357C34.2098 0.270944 34.7437 0.333461 35.2746 0.40491C37.579 0.679817 39.8397 1.24293 42.0033 2.08099C45.4094 3.47425 48.398 5.82315 51.4015 8.05297C55.088 10.7919 58.8908 13.4117 63.0336 15.1979C68.7005 17.6302 74.8536 18.4369 80.7353 20.2023C86.617 21.9677 92.5524 24.9656 95.9466 30.4732C96.8263 31.9311 97.5273 33.4894 98.0344 35.1144C99.2543 38.8893 99.645 43.0363 99.9552 47.0613C100.256 50.6338 100.435 54.5278 98.6518 57.5733Z" fill="#00937F"/>
<path opacity="0.48" d="M98.6534 57.5733C96.7625 60.8064 93.1446 62.2681 89.7056 63.191C80.8861 65.5518 72.3678 64.5217 63.4796 64.7569C59.6261 64.8581 56.0977 67.1088 53.0853 69.7137C50.0729 72.3186 47.3587 75.3701 44.057 77.5196C36.9733 82.1429 28.2104 82.1161 19.9456 81.9494C17.8071 81.9107 15.6417 81.8631 13.5658 81.3004C12.5808 81.0314 11.6315 80.6456 10.7383 80.1513C8.16934 78.6962 6.05883 76.5535 4.64489 73.965C3.66364 72.2102 3.00408 70.2947 2.69725 68.3086C2.67637 68.1805 2.65848 68.0525 2.64356 67.9275C2.62865 67.8025 2.6197 67.7459 2.60777 67.6536C2.60699 67.5915 2.6 67.5297 2.5869 67.469C2.57053 67.3968 2.56351 67.3227 2.56602 67.2487C2.56602 67.1743 2.54216 67.0195 2.53619 66.9034C2.53023 66.7873 2.51233 66.6057 2.50338 66.439C2.50338 66.2901 2.48847 66.1413 2.48549 65.9894V64.5783C2.48103 64.3626 2.48999 64.1469 2.51233 63.9323C2.5153 63.9016 2.5153 63.8707 2.51233 63.84C2.51233 63.6554 2.53619 63.4708 2.5511 63.2863V63.1195C2.55598 63 2.56693 62.8807 2.58391 62.7623C2.60479 62.536 2.63163 62.3098 2.65848 62.0835C2.68234 61.9109 2.70322 61.7352 2.72708 61.5655L2.74497 61.4286C2.76883 61.2559 2.79568 61.0892 2.82252 60.9165C2.84936 60.7439 2.88516 60.5295 2.91796 60.3211C2.95077 60.1127 2.98656 59.9341 3.02235 59.7257C3.09095 59.3357 3.1685 58.9457 3.25201 58.5587C3.29377 58.3622 3.33255 58.1687 3.3743 57.9633L3.50554 57.3679C3.55027 57.1714 3.59203 56.9779 3.63975 56.7725C3.83064 55.9389 4.03644 55.1083 4.23627 54.2747C4.31979 53.9383 4.40032 53.6019 4.48383 53.2655C4.51365 53.1464 4.5405 53.0243 4.57032 52.9082L4.73138 52.2205C4.84174 51.768 4.94613 51.3096 5.04754 50.8511C5.09824 50.6248 5.14597 50.3956 5.19369 50.1664C5.24141 49.9371 5.28615 49.7079 5.33387 49.4817L5.42931 48.9815L5.50089 48.5796C5.60827 47.9842 5.69973 47.3967 5.77529 46.8172C5.79915 46.6445 5.82003 46.4719 5.84091 46.2992C5.8439 46.2635 5.8439 46.2277 5.84091 46.192C5.84694 46.0843 5.85889 45.9769 5.8767 45.8705C5.89161 45.7157 5.90653 45.5728 5.91846 45.412C5.92144 45.3734 5.92144 45.3346 5.91846 45.2959C5.91846 45.1262 5.9453 44.9565 5.95723 44.7839V44.5844C5.95723 44.4355 5.97513 44.2867 5.97811 44.1319C6.00396 43.4591 6.00396 42.7853 5.97811 42.1105C6.07619 42.0871 6.17589 42.0712 6.27637 42.0628C7.61372 42.2043 8.96305 42.1893 10.2969 42.0182C10.4093 42.0123 10.521 41.9974 10.631 41.9735C12.472 41.7079 14.2585 41.1491 15.9221 40.3183C16.6976 39.9283 17.4671 39.4758 18.3261 39.3805C19.1851 39.2852 20.0739 39.5651 20.9508 39.5055C22.4689 39.4073 23.6947 38.3356 25.0489 37.6181C25.2129 37.5288 25.3769 37.4454 25.5469 37.371C25.6414 37.324 25.7417 37.29 25.8452 37.2698C25.9053 37.2579 25.9671 37.2579 26.0271 37.2698C26.3761 37.3174 26.5521 37.7044 26.8235 37.9247C27.1686 38.1422 27.5733 38.2463 27.9807 38.2224C28.8099 38.2582 29.6421 38.2879 30.4772 38.3058C31.8074 38.3375 33.1387 38.3455 34.4709 38.3296C34.9749 38.3296 35.479 38.3296 35.9831 38.3028C38.4211 38.2661 40.8505 38.003 43.2397 37.5169C44.6236 37.2192 46.1985 36.8351 47.3587 37.6449C47.603 37.8553 47.8678 38.0408 48.1491 38.1986C48.7128 38.4368 49.3421 38.2165 49.9386 38.0676C52.9212 37.3234 56.2856 38.5648 59.0147 37.1745L59.2384 37.8027L59.8349 37.7163C66.3966 36.7547 72.2723 36.3826 78.8997 36.0611C80.2538 36.9542 82.0135 36.8083 83.6271 36.6327L98.0778 35.1144C99.2977 38.8893 99.6884 43.0363 99.9986 47.0613C100.258 50.6338 100.437 54.5278 98.6534 57.5733Z" fill="#00937F"/>
<path d="M75.1115 60.6992L94.0182 58.1657C94.3723 58.1542 94.7137 58.0313 94.9935 57.8144C95.164 57.5999 95.3119 57.3685 95.4349 57.1237C95.8764 56.4807 96.7324 56.314 97.484 56.0937C98.2356 55.8734 99.0648 55.3881 99.0886 54.6052C94.1882 54.3997 89.3564 57.5167 84.6051 56.311C83.7103 56.0788 82.7887 55.6888 81.8581 55.8079C80.68 55.9567 79.7703 56.8767 78.6757 57.347C77.9337 57.627 77.1571 57.8053 76.3672 57.8769C75.1741 58.0407 70.0769 57.9395 69.9456 59.6304C69.7876 61.4613 74.1064 60.6992 75.1115 60.6992Z" fill="url(#paint0_linear)"/>
<path d="M43.6448 53.2953L62.5486 50.7648C62.9027 50.7533 63.244 50.6304 63.5239 50.4135C63.6963 50.1998 63.8453 49.9683 63.9683 49.7228C64.4067 49.0768 65.2657 48.9131 66.0144 48.6898C66.763 48.4665 67.5951 47.9842 67.619 47.2013C62.7186 46.9959 57.8897 50.1158 53.1355 48.9071C52.2407 48.6779 51.3191 48.2879 50.3885 48.407C49.1955 48.5558 48.3007 49.4728 47.2061 49.9431C46.4647 50.2256 45.6879 50.405 44.8975 50.476C43.7045 50.6398 38.6072 50.5356 38.476 52.2266C38.3358 54.0574 42.6516 53.2953 43.6448 53.2953Z" fill="url(#paint1_linear)"/>
<path d="M47.7535 24.6829C47.0228 25.3229 46.3308 26.1237 45.3257 26.097C44.5383 26.0761 43.724 26.2309 42.9217 26.216C42.0703 26.2003 41.2219 26.1096 40.3865 25.9451C40.3026 25.9157 40.2133 25.9048 40.1248 25.913C40.0362 25.9212 39.9505 25.9484 39.8735 25.9928C39.7363 26.1059 39.7273 26.2905 39.6826 26.4721C39.6379 26.6537 39.4798 26.8263 39.3187 26.7698C39.1577 26.7132 39.1577 26.4721 39.0205 26.347C38.9492 26.2987 38.8637 26.2756 38.7777 26.2816C38.6917 26.2875 38.6102 26.3221 38.5462 26.3798C38.409 26.484 38.3106 26.6328 38.1734 26.737C38.0282 26.8478 37.8481 26.9031 37.6656 26.8931C37.4831 26.883 37.3102 26.8081 37.1781 26.682C37.046 26.556 36.9634 26.3869 36.9452 26.2054C36.927 26.0239 36.9744 25.8418 37.0788 25.6921C37.377 25.2664 37.9885 25.2544 38.4955 25.1413C39.2501 24.9716 39.9093 24.4983 40.6609 24.3226C41.2574 24.1827 41.8927 24.2393 42.5011 24.1559C43.5212 24.016 44.4309 23.5039 45.4002 23.1973C45.7581 23.0842 46.128 23.0961 46.4799 22.9978C46.8885 22.8847 47.2286 22.5543 47.6133 22.3756C49.3164 21.5897 47.7535 24.6829 47.7535 24.6829Z" fill="#FCB787"/>
<path d="M45.4606 50.2765C45.6306 51.4673 44.6941 51.9943 44.0349 52.1223C43.3758 52.2503 42.9254 51.8246 42.0217 52.3396C41.5383 52.6245 40.9873 52.7748 40.426 52.7748C39.8646 52.7748 39.3136 52.6245 38.8303 52.3396C37.8222 51.7055 38.3292 51.3125 39.4 50.9731C40.6255 50.5834 41.8215 50.1068 42.9791 49.5471C43.9663 49.0261 43.9305 48.91 44.369 49.1184C45.3085 49.5769 45.2817 49.0797 45.4606 50.2765Z" fill="#505365"/>
<path d="M49.212 33.0424C48.9346 32.9977 42.6144 36.9125 41.9255 37.8057C41.2365 38.6988 42.173 39.6663 42.5757 43.3668C42.9783 47.0673 43.0767 49.5055 43.1931 49.9699C43.3094 50.4343 44.6188 50.4433 44.8395 49.9461C45.0602 49.4489 45.0781 47.755 45.3018 45.9479C45.6179 43.3668 46.1787 43.9503 44.6068 39.8628L50.411 37.3234L49.212 33.0424Z" fill="#FCB787"/>
<path d="M43.1962 36.3439C43.1007 36.4147 43.0297 36.5136 42.9934 36.6267C42.9841 36.767 43.029 36.9054 43.1186 37.0138C44.0223 38.4433 45.1433 39.7238 46.4413 40.8095L49.7877 37.9872C49.9642 37.8538 50.1191 37.6942 50.2471 37.5139C50.3993 37.2385 50.4918 36.9342 50.5185 36.6208C50.7422 35.1323 50.9331 33.5336 50.256 32.1909C50.1895 32.0363 50.0873 31.8996 49.9577 31.792C49.8115 31.7039 49.6459 31.6529 49.4753 31.6435C49.3047 31.6342 49.1345 31.6668 48.9795 31.7384C47.9296 32.1254 47.0945 32.9977 46.2444 33.7003C45.2065 34.5458 44.1904 35.427 43.1962 36.3439Z" fill="#505365"/>
<path d="M62.9846 43.6555C63.7661 43.3578 64.3924 43.3013 64.9591 43.6555C65.5258 44.0098 65.5556 44.635 66.5787 44.8702C67.6017 45.1054 68.3235 46.061 68.6218 47.2012C68.92 48.3414 68.2817 48.2938 67.2677 47.8115C66.2536 47.3292 64.8816 46.4956 63.9868 46.2456C62.9101 45.9479 62.3374 45.4031 62.1584 44.9535C61.7707 43.989 62.9846 43.6555 62.9846 43.6555Z" fill="#505365"/>
<path d="M50.3097 36.1206C50.1993 36.3796 51.1418 42.9678 51.8397 43.861C52.5377 44.7541 54.8939 44.3581 58.5864 44.8523C62.2788 45.3465 62.8783 45.5728 63.3496 45.5728C63.8208 45.5728 64.0326 44.5338 63.7015 44.1021C63.3705 43.6704 62.4906 43.5067 60.7756 42.8875C58.2225 41.9586 59.0457 41.3989 54.6911 41.9289L54.5539 35.3109L50.3097 36.1206Z" fill="#FCB787"/>
<path d="M48.8203 31.92C49.4168 33.5425 50.6099 39.4936 50.6546 40.3718C50.6993 41.2501 55.1822 40.3956 55.6355 40.1247C55.6355 40.1247 54.9376 37.8711 55.2389 36.9244C55.5401 35.9777 56.6854 32.7327 55.2955 31.92H48.8203Z" fill="#505365"/>
<path d="M57.7541 20.1458C58.7503 20.5655 61.7806 22.1314 62.2787 22.1701C62.7768 22.2089 63.5046 22.1314 65.652 23.2419C67.7995 24.3523 68.4348 25.1442 69.2312 25.1442C70.0275 25.1442 72.1601 26.2606 72.2615 26.9305C72.3032 27.1954 71.9155 26.9811 71.4592 26.9305C70.7761 26.859 69.765 26.2963 69.6129 26.2815C69.1327 26.2338 70.3854 27.3502 70.0782 27.3502C69.771 27.3502 69.3892 27.0108 68.7241 26.5524C68.059 26.0939 68.1574 25.6593 66.1024 25.2395C62.9588 24.6113 62.6158 23.8522 62.2071 23.751C61.7985 23.6497 57.1367 22.9353 57.1367 22.9353L57.7541 20.1458Z" fill="#FCB787"/>
<path opacity="0.3" d="M52.5189 17.9755C52.3754 18.2761 52.352 18.6199 52.4533 18.9371C51.818 19.8124 50.5355 21.2771 49.4707 20.7561C49.4707 20.381 49.429 20.0089 49.3812 19.6367C49.1635 18.2316 52.5189 17.9755 52.5189 17.9755Z" fill="#FCB787"/>
<path d="M49.8423 12.4203H49.8065C49.459 12.4913 49.1155 12.5808 48.7775 12.6882C48.2615 12.8549 47.7037 13.1229 47.5457 13.6409C47.4985 13.8255 47.4824 14.0166 47.4979 14.2065C47.5271 15.1129 47.6269 16.0157 47.7962 16.9067C47.9423 17.6629 48.5926 18.2583 49.195 18.6751C49.4189 18.8005 49.6763 18.8536 49.9317 18.8269C50.1435 18.8269 50.4269 18.7257 50.5819 18.9281C50.6285 19.0066 50.6518 19.0966 50.6492 19.1878C50.6465 19.2789 50.6181 19.3675 50.567 19.4431C50.4776 19.6039 50.3433 19.7408 50.2509 19.8897C50.197 19.9639 50.1647 20.0515 50.1573 20.1429C50.1499 20.2342 50.1679 20.3258 50.2091 20.4077C50.2787 20.4837 50.3661 20.5412 50.4635 20.5749C50.5608 20.6087 50.6651 20.6178 50.7669 20.6012C51.2533 20.5955 51.728 20.452 52.1359 20.1874C52.3403 20.0548 52.5138 19.8798 52.6445 19.6743C52.7752 19.4688 52.8601 19.2377 52.8935 18.9966C52.9054 18.9296 52.9054 18.8611 52.8935 18.7941C52.8799 18.7441 52.8598 18.6961 52.8338 18.6512C52.6108 18.2928 52.4864 17.8821 52.4729 17.4604C52.4729 17.0139 52.5743 16.5673 52.6071 16.1327C52.6847 15.2008 52.625 14.0309 51.9659 13.3015C51.6799 13.0188 51.3481 12.7863 50.9846 12.6138C50.7968 12.4971 50.5898 12.4145 50.3732 12.3697C50.1946 12.3581 50.0154 12.3752 49.8423 12.4203Z" fill="#FCB787"/>
<g opacity="0.3">
<path opacity="0.3" d="M50.0555 35.1531C50.0524 35.092 50.0584 35.0308 50.0734 34.9715C50.1092 34.909 50.1002 34.9894 50.0555 35.1531Z" fill="#00937F"/>
<path opacity="0.3" d="M50.3022 37.8324C49.3098 38.5379 48.2637 39.1649 47.1735 39.708C47.1735 39.708 47.0154 39.4579 46.6933 38.9101L46.5859 38.4814L49.148 37.1626C49.5924 36.9334 49.9563 35.6741 50.0666 35.165C50.0547 35.805 50.3022 37.8146 50.3022 37.8324Z" fill="#00937F"/>
</g>
<path d="M94.9519 51.9973C94.9544 52.703 94.8925 53.4075 94.7669 54.102C94.5701 54.9952 94.5492 55.6561 94.1943 56.311C93.8394 56.966 94.1406 57.8353 94.934 57.7162C95.7273 57.5971 96.3686 56.5254 96.7235 55.9568C97.0785 55.3881 97.6183 53.6317 97.7227 53.331C97.8271 53.0303 98.2506 51.8097 98.1045 51.4674C97.9583 51.125 96.4372 50.7945 95.9063 50.6665C95.3754 50.5385 94.9519 51.9973 94.9519 51.9973Z" fill="#505365"/>
<path opacity="0.5" d="M98.0938 51.4674C98.0283 51.3753 97.9385 51.3031 97.8344 51.259C97.7653 51.8122 97.629 52.3551 97.4287 52.8755C97.3154 53.1732 96.7725 54.9297 96.4296 55.4983C96.0866 56.0669 95.4423 57.1386 94.64 57.2607C94.5407 57.2782 94.4389 57.275 94.3409 57.2515C94.2428 57.2279 94.1507 57.1844 94.0703 57.1238C94.1011 57.3113 94.2049 57.4791 94.3591 57.5907C94.5133 57.7022 94.7054 57.7484 94.8935 57.7192H94.9263C95.7167 57.6001 96.3609 56.5284 96.7159 55.9597C97.0708 55.3911 97.6107 53.6347 97.7151 53.334C97.8194 53.0333 98.24 51.8246 98.0938 51.4674Z" fill="#505365"/>
<path d="M74.8984 57.3054C74.3148 57.7035 73.6958 58.0473 73.0492 58.3325C72.1872 58.6778 71.6384 59.0232 70.8958 59.0976C70.1531 59.172 69.6013 59.9074 70.1441 60.4968C70.687 61.0863 71.9337 61.0148 72.6018 60.9791C73.2699 60.9434 75.0267 60.4105 75.3398 60.3331C75.653 60.2557 76.8968 59.9163 77.0996 59.6037C77.3024 59.2911 76.9892 57.8175 76.8013 57.3203C76.6134 56.8231 74.8984 57.3054 74.8984 57.3054Z" fill="#505365"/>
<path opacity="0.5" d="M77.1071 58.9041C76.8984 59.2673 75.6158 59.6662 75.2878 59.7555C74.9597 59.8448 73.1433 60.467 72.4573 60.5087C71.7713 60.5504 70.5007 60.6278 69.934 59.9639C69.9308 60.0622 69.9477 60.1601 69.9836 60.2517C70.0195 60.3433 70.0736 60.4267 70.1428 60.4968C70.6856 61.0922 71.9323 61.0148 72.6004 60.9791C73.2685 60.9434 75.0253 60.4105 75.3385 60.3331C75.6516 60.2557 76.8954 59.9163 77.0982 59.6037C77.1791 59.3483 77.1904 59.076 77.131 58.8148C77.1273 58.8455 77.1193 58.8756 77.1071 58.9041Z" fill="#505365"/>
<path d="M95.9442 50.9315C94.8884 50.4581 93.3434 49.3536 91.6672 48.2908C90.0983 47.2995 87.6914 47.0554 87.1933 46.7815C86.6952 46.5076 83.3398 38.8804 83.2234 38.7643C83.1071 38.6482 77.2344 39.8866 77.2344 39.8866C77.7026 40.6368 83.4263 47.2757 84.0944 47.9425C84.7625 48.6094 84.8281 49.1959 85.9615 49.4311C87.0949 49.6662 95.1539 52.4766 95.3925 52.557C95.6311 52.6373 96.4543 51.1458 95.9442 50.9315Z" fill="#FCB787"/>
<path d="M77.2266 39.8717C77.2266 39.8717 81.9272 48.1867 82.1628 48.1122C82.3984 48.0378 85.6166 46.4153 86.246 45.1739L83.2156 38.7494L77.2266 39.8717Z" fill="#A2B650"/>
<path d="M77.2266 39.8717C77.2266 39.8717 81.9272 48.1867 82.1628 48.1122C82.3984 48.0378 85.6166 46.4153 86.246 45.1739L83.2156 38.7494L77.2266 39.8717Z" fill="#505365"/>
<path d="M83.9283 45.5728C83.9209 45.3782 83.8816 45.1861 83.812 45.0041C83.66 44.7184 83.4448 44.471 83.1827 44.2807C83.1149 44.2057 83.0321 44.1457 82.9396 44.1046C82.8471 44.0636 82.747 44.0425 82.6458 44.0425C82.3475 44.0872 82.2372 44.4534 82.0493 44.6796C81.6884 45.0786 81.0203 45.0131 80.5938 45.3405C81.065 44.5576 81.4885 43.7508 81.9001 42.9291C82.038 42.6172 82.2037 42.3183 82.3952 42.036C82.6215 41.7516 82.8786 41.493 83.1618 41.265L84.1431 40.4135C84.155 40.4019 84.1692 40.3928 84.1848 40.3867C84.2295 40.3867 84.2564 40.4344 84.2683 40.479C84.3432 40.9041 84.4529 41.3222 84.5964 41.7294C84.7933 42.17 85.1452 42.5242 85.36 42.9529C85.6582 43.5275 85.6821 44.2212 86.0728 44.7392C86.1473 44.8172 86.2016 44.9123 86.2309 45.016C86.2325 45.0902 86.2178 45.1637 86.1879 45.2316C86.158 45.2995 86.1137 45.36 86.0579 45.409C85.4968 45.9987 84.8646 46.5167 84.1759 46.9511C84.0892 47.0212 83.9869 47.0692 83.8776 47.0911C83.8651 46.8431 83.8872 46.5946 83.9432 46.3527C83.9561 46.0927 83.9512 45.8321 83.9283 45.5728Z" fill="url(#paint2_linear)"/>
<path d="M85.1386 37.5526C85.5741 38.3028 85.9857 39.3895 84.8851 40.4344C83.7845 41.4794 82.0904 43.6526 78.2071 46.201C78.3656 47.8727 78.2365 49.5592 77.8253 51.1875C77.3415 53.2055 76.9997 55.2547 76.8023 57.3203C76.8023 57.6716 75.2931 57.618 74.9023 57.3054C74.9023 57.3054 75.1767 48.27 75.0604 46.8559C74.8785 44.6737 74.8785 44.6737 76.4503 43.3192C78.0221 41.9646 80.3575 39.1513 80.3575 39.1513L85.1386 37.5526Z" fill="#FCB787"/>
<path d="M75.543 43.7866C75.543 43.7866 77.2252 45.9568 79.7693 46.6803C79.7693 46.6803 82.1345 43.4978 83.0174 42.8101C83.9002 42.1224 87.0856 40.0623 85.135 37.5288L79.7872 38.7702L75.543 43.7866Z" fill="#505365"/>
<path d="M93.0051 32.6018C92.1103 31.8158 91.7643 32.0064 91.0276 31.0031C90.2909 29.9998 87.7766 26.6923 87.192 26.5732C86.6074 26.4542 82.4765 26.9305 81.1612 26.8442C80.1562 26.8061 79.1599 27.0428 78.28 27.5289C77.996 27.6864 77.6669 27.7431 77.3464 27.6896C75.7537 28.0112 75.1841 27.779 73.648 29.4759C72.6636 30.6115 71.7568 31.812 70.9339 33.0692C70.4238 33.8254 70.1405 34.0814 69.4813 33.2746C68.9648 32.643 68.5123 31.9619 68.1302 31.2413C68.0733 31.1519 68.0404 31.0493 68.0348 30.9436C68.0348 30.7888 68.1779 30.6756 68.2585 30.5446C68.5 30.1606 68.333 29.6515 68.16 29.2437C68.0754 28.9446 67.8913 28.6832 67.6381 28.5024C67.4956 28.4436 67.3423 28.4153 67.1882 28.4194C67.034 28.4235 66.8825 28.4599 66.7433 28.5262C66.5613 28.5897 66.3935 28.6883 66.2497 28.8166C66.1059 28.9448 65.9889 29.1 65.9052 29.2734C65.6636 29.8689 65.9857 30.503 66.272 31.0597C66.7294 31.9619 67.1124 32.8998 67.4174 33.8641C67.7156 34.7959 67.9542 35.7932 68.6104 36.5107C68.8268 36.7755 69.1319 36.9532 69.4694 37.0108C69.6763 37.0124 69.8814 36.9729 70.0729 36.8947C70.2644 36.8165 70.4384 36.7012 70.5849 36.5553C71.3216 35.9272 71.8167 35.0668 72.3744 34.2779C72.6932 33.7928 73.0754 33.3522 73.5108 32.968C73.8479 32.6881 74.3579 32.5422 74.6174 32.1939C74.761 33.6487 75.18 35.063 75.8522 36.3618C76.8931 38.3922 76.6127 39.5592 76.7678 39.6782C76.9229 39.7973 78.1696 40.3124 79.813 39.8539C81.4565 39.3954 83.5652 39.2585 84.3884 38.9876C84.9684 38.7742 85.4919 38.431 85.9184 37.9843C86.0347 37.8682 84.7254 35.6354 83.7918 34.5786C82.8583 33.5217 81.8323 29.7319 81.6772 29.458C81.6772 29.458 85.82 28.937 86.3688 28.7852C86.7968 29.3734 87.3296 29.878 87.9406 30.2737C89.0681 31.0597 90.1 31.5241 90.4102 31.9558C90.7204 32.3874 90.4371 33.4443 90.9411 34.1082C91.4452 34.7721 91.2782 34.1082 91.9761 34.8078C92.2535 35.0847 92.7963 34.9328 93.3839 34.3493C93.9714 33.7658 93.8999 33.3877 93.0051 32.6018Z" fill="#FCB787"/>
<path d="M76.8023 57.3202C76.9643 55.6552 77.2132 53.9997 77.5479 52.3604C75.7106 52.3604 75.0395 51.9824 75.0395 51.9824C74.9829 54.6439 74.9023 57.3053 74.9023 57.3053C75.2931 57.6209 76.7993 57.6715 76.8023 57.3202Z" fill="#F1F1F1"/>
<path d="M77.5429 52.3605H77.1462C76.7525 54.3611 76.4811 56.6593 76.4781 56.9332C76.4751 57.2071 75.4879 57.2309 74.9062 57.0672V57.3173C75.297 57.6328 76.8032 57.6834 76.8062 57.3321C76.9682 55.6671 77.2171 54.0116 77.5518 52.3724L77.5429 52.3605Z" fill="#E5E6E7"/>
<path d="M90.1445 50.7588C92.6201 51.5924 95.2567 52.5093 95.3909 52.5451C95.6236 52.6225 96.4557 51.1339 95.9457 50.9047C94.8898 50.4314 93.3449 49.3269 91.6686 48.264C91.6686 48.2759 91.3495 50.4998 90.1445 50.7588Z" fill="#F1F1F1"/>
<path d="M95.9429 50.9315C94.887 50.4581 93.3421 49.3536 91.6658 48.2908C91.6658 48.2908 91.6509 48.3801 91.6211 48.523C93.1571 49.5114 94.559 50.4939 95.5372 50.9315C95.9608 51.122 95.4597 52.1759 95.1435 52.4855L95.3881 52.5718C95.6208 52.6344 96.4529 51.1458 95.9429 50.9315Z" fill="#E5E6E7"/>
<path d="M85.9125 37.9873C85.4853 38.4333 84.9621 38.7764 84.3824 38.9905C83.8017 39.1393 83.2119 39.2497 82.6167 39.321C81.6707 39.4459 80.7326 39.6248 79.8071 39.8569C78.1637 40.3124 76.9169 39.8003 76.7618 39.6812C76.6067 39.5621 76.8871 38.3981 75.8462 36.3618C75.282 35.2467 74.7938 34.095 74.3847 32.9144C74.2952 32.703 73.2573 33.8849 73.0068 34.1766L72.9501 34.2392L72.8964 34.2034C72.5554 33.9745 72.2447 33.7034 71.9718 33.3967L71.927 33.3401C71.9121 33.3222 71.8972 33.3014 71.8793 33.2835L71.7809 33.1615C71.5219 32.8475 71.3401 32.4774 71.25 32.0808C71.9208 31.1714 72.6522 30.3081 73.4392 29.4967C74.0497 28.7427 74.8858 28.2034 75.8253 27.9576C76.2578 27.8593 76.7201 27.8236 77.1347 27.7105C77.6069 27.5403 78.0542 27.3081 78.4649 27.0198C78.9183 26.7608 79.476 26.7727 79.9711 26.603C80.1195 26.5399 80.2746 26.4939 80.4334 26.4661C80.6482 26.4675 80.8626 26.4854 81.0747 26.5197C81.534 26.5435 81.9695 26.3529 82.4318 26.2874C83.1178 26.1892 83.8306 26.3768 84.5196 26.219C84.6747 26.1803 84.8775 26.1416 84.964 26.2726C85.0505 26.4035 84.964 26.5256 84.964 26.6506C84.987 26.7817 85.0189 26.911 85.0594 27.0377C85.125 27.3319 85.1698 27.6303 85.1936 27.9308C85.1936 28.0528 85.2115 28.1719 85.2175 28.294C85.2354 28.687 85.2354 29.0829 85.2175 29.4848C85.224 29.5796 85.1989 29.6738 85.1459 29.7527C85.0737 29.8213 84.982 29.8659 84.8835 29.8807C84.2869 30.0236 82.8672 30.0237 82.7449 30.7917C82.7195 31.0036 82.7316 31.2182 82.7807 31.4258C83.005 32.5036 83.3912 33.5414 83.926 34.5041C84.0573 34.7482 84.1975 34.9924 84.3406 35.2365C84.4838 35.4806 86.166 37.7342 85.9125 37.9873Z" fill="#00937F"/>
<path d="M78.0299 23.5426C77.9284 24.2124 78.6264 26.6239 78.9246 27.4366C78.9246 27.4366 77.1052 29.0144 76.1359 28.8507C76.1359 28.8507 76.0912 28.8209 76.1359 28.4875C76.1806 28.1541 76.2105 27.3205 75.9301 27.0913C75.6497 26.862 77.5854 24.3434 77.5854 24.3434L78.0299 23.5426Z" fill="#FCB787"/>
<path opacity="0.3" d="M77.8688 26.0046L77.9285 25.5343C77.9806 25.2578 78.0483 24.9844 78.1313 24.7156L77.833 25.18C77.833 25.18 75.8287 26.743 76.0434 26.9216C76.1802 27.1044 76.244 27.3315 76.2224 27.5587C76.2224 27.5587 77.1053 27.7284 77.8688 26.0046Z" fill="#FCB787"/>
<path d="M78.3672 24.1737V24.2094L78.3105 24.5548C78.2983 24.6868 78.2509 24.8133 78.1733 24.9209C78.0958 25.0103 77.9765 25.0519 77.893 25.1353C77.7424 25.3374 77.6087 25.5514 77.4933 25.7754C77.3429 25.987 77.1688 26.1808 76.9743 26.3529C76.6582 26.6357 76.3301 27.0644 75.9185 27.2163C75.7425 27.2788 75.5576 27.3443 75.3786 27.4008C74.8984 27.5586 74.8477 27.1627 74.6688 26.8471C74.4455 26.4582 74.2636 26.0472 74.1259 25.6205C73.8579 24.7746 73.7795 23.8803 73.8963 23.0007C73.9121 22.855 73.9431 22.7114 73.9887 22.572C74.0941 22.3105 74.25 22.0722 74.4476 21.8708C74.6452 21.6694 74.8807 21.5088 75.1405 21.3982C75.4003 21.2876 75.6793 21.2292 75.9617 21.2263C76.2442 21.2234 76.5244 21.276 76.7864 21.3812L76.9355 21.4497C77.6544 21.8575 77.9765 22.7328 78.0182 23.5336C78.0568 23.5173 78.0995 23.5131 78.1405 23.5216C78.1816 23.5301 78.219 23.5509 78.2479 23.5813C78.3142 23.6631 78.3597 23.7597 78.3805 23.8629C78.4012 23.966 78.3967 24.0727 78.3672 24.1737Z" fill="#FCB787"/>
<path d="M59.8982 20.7173C59.6121 21.7735 59.1943 22.7897 58.6545 23.742C58.6494 23.7558 58.6423 23.7688 58.6336 23.7807C58.5859 23.8844 58.5093 23.9723 58.4129 24.0338C58.1683 24.1469 57.9089 23.8938 57.6404 23.8522C57.193 23.7867 56.8978 24.2987 56.7755 24.7453C56.2297 26.7488 56.5846 28.8745 56.5876 30.9554C56.5876 31.2859 56.5428 31.6818 56.2505 31.8307C56.0911 31.8959 55.9171 31.9174 55.7465 31.8932C54.9691 31.861 54.1913 31.9433 53.4379 32.1373C53.3157 32.1671 53.1934 32.2028 53.0681 32.2415C52.4518 32.4578 51.8195 32.626 51.1771 32.7446C49.8469 32.9203 48.5077 32.4797 47.2997 31.8932C47.5205 30.9663 47.7193 30.0365 47.8963 29.1037C47.9763 28.7774 48.0134 28.4422 48.0066 28.1064C48.0066 27.8087 47.9142 27.5407 47.8933 27.2549C47.8456 26.5017 48.1915 25.689 47.8366 25.0251C47.7143 25.1184 47.5969 25.2177 47.4847 25.3228C47.4668 25.3228 46.0441 23.0841 46.1902 22.7477C46.2976 22.4917 47.0164 22.1195 47.2311 21.8546C47.4326 21.5906 47.6074 21.3074 47.7531 21.0091C48.0675 20.4463 48.5432 19.9902 49.1191 19.6992C49.3783 19.5565 49.6511 19.4398 49.9334 19.3509C50.0408 19.3181 50.1511 19.3181 50.2615 19.2883L50.682 19.1633C50.5627 19.3415 50.488 19.5457 50.4643 19.7587C50.4423 19.925 50.4769 20.0938 50.5627 20.238C50.6343 20.3422 50.7148 20.3363 50.8371 20.3273C51.1141 20.3065 51.3844 20.2327 51.6335 20.11C52.1399 19.8633 52.5379 19.4395 52.7519 18.9192C52.7698 18.8716 52.7877 18.8239 52.8026 18.7763C52.8176 18.7287 52.8295 18.6959 52.8683 18.684C52.8944 18.6752 52.9227 18.6752 52.9488 18.684C54.1239 19.0115 55.2484 19.464 56.4325 19.7647C56.7367 19.8212 59.937 20.5655 59.8982 20.7173Z" fill="#00937F"/>
<path d="M33.7832 53.9889C33.7832 54.364 32.1816 54.6707 30.2041 54.6707C28.2267 54.6707 26.625 54.373 26.625 53.9889C26.625 53.6049 28.2267 53.3042 30.2041 53.3042C32.1816 53.3042 33.7832 53.6108 33.7832 53.9889Z" fill="url(#paint3_linear)"/>
<path d="M33.0574 54.1259C32.3649 54.1282 31.6874 53.9254 31.1104 53.5432C30.5335 53.1609 30.0833 52.6163 29.8166 51.9784C29.55 51.3406 29.479 50.638 29.6127 49.9599C29.7463 49.2817 30.0786 48.6583 30.5674 48.1688C31.0562 47.6792 31.6795 47.3454 32.3585 47.2097C33.0375 47.074 33.7416 47.1424 34.3816 47.4064C35.0215 47.6704 35.5686 48.1179 35.9536 48.6925C36.3386 49.267 36.5441 49.9426 36.5441 50.6338C36.5448 51.0916 36.4553 51.5451 36.2805 51.9683C36.1057 52.3916 35.8491 52.7763 35.5253 53.1006C35.2015 53.4249 34.817 53.6823 34.3935 53.8582C33.9701 54.0342 33.5161 54.1251 33.0574 54.1259Z" fill="#F1F1F1"/>
<path d="M30.2269 49.1929V48.6302C29.9461 49.0257 29.7529 49.4762 29.6602 49.952L30.203 49.2554L31.1813 49.1631V49.1065L30.2269 49.1929Z" fill="#403D3D"/>
<path d="M35.3736 48.0289L35.302 48.9577L33.9062 48.9428H33.8704L32.6207 48.1837V48.1569L32.7668 47.4007H32.7101L32.561 48.1747L31.1771 49.1453L31.702 50.47V50.4998L31.028 52.1015L30.1093 51.9735L30.1362 51.9586L29.6172 50.9136C29.6202 50.9695 29.6262 51.0251 29.6351 51.0803L30.0825 51.9735H30.1093V52.4438C30.4766 53.0489 31.0181 53.5293 31.6633 53.8222H31.7289L31.9645 53.3072L33.7541 53.2804V53.2209L31.9645 53.2506H31.9377L31.0697 52.1432V52.1223L31.7408 50.5266H33.2828L33.3275 50.5504L34.2909 52.0122L33.7451 53.2655L34.5355 53.7746L34.622 53.7597C35.1824 53.4741 35.6545 53.0419 35.988 52.5093L35.83 51.8395H35.8508L36.0417 50.0533L36.4831 50.1634C36.3784 49.3431 35.9852 48.5867 35.3736 48.0289ZM36.0029 50.0205L35.8121 51.771L35.7136 51.8067L34.3625 51.9645L34.3416 51.9496L33.3783 50.4849L33.9121 49.0143H35.2931L35.3468 49.047L36.0149 50.0026L36.0029 50.0205Z" fill="#403D3D"/>
<path d="M33.0543 47.1447C32.8593 47.1451 32.6647 47.162 32.4727 47.1953L32.7113 47.4007L33.2571 47.1536C33.2004 47.1506 33.1348 47.1447 33.0543 47.1447Z" fill="#403D3D"/>
<path d="M33.5458 53.2923C32.805 53.2876 32.0895 53.0222 31.5255 52.5428C30.9615 52.0633 30.585 51.4006 30.4624 50.6713C30.3398 49.9421 30.4789 49.193 30.8553 48.556C31.2316 47.9191 31.8211 47.4351 32.5198 47.1893C31.8812 47.2857 31.2818 47.5568 30.7882 47.9726C30.2946 48.3883 29.926 48.9324 29.7234 49.5445C29.5208 50.1566 29.492 50.8127 29.6402 51.4402C29.7885 52.0676 30.108 52.6418 30.5633 53.099C31.0187 53.5562 31.592 53.8786 32.2197 54.0303C32.8474 54.182 33.5049 54.1572 34.1194 53.9586C34.7338 53.76 35.2811 53.3954 35.7006 52.9052C36.12 52.415 36.3952 51.8184 36.4956 51.1816C36.2844 51.7956 35.8869 52.3287 35.3583 52.7069C34.8297 53.0852 34.1962 53.2898 33.5458 53.2923Z" fill="#E5E6E7"/>
<path d="M47.3926 13.0664C47.3953 12.7472 47.4699 12.4327 47.6109 12.1462C47.7518 11.8596 47.9555 11.6084 48.2069 11.4111C48.7166 11.0198 49.3359 10.797 49.9786 10.774L49.9129 10.8782C50.2042 10.7413 50.525 10.6788 50.8465 10.6966C51.5557 10.6944 52.2606 10.806 52.9343 11.0271C52.6468 11.1408 52.3703 11.2803 52.1081 11.4439C52.2982 11.591 52.5121 11.7048 52.7404 11.7803C52.9762 11.8565 53.1758 12.0164 53.3012 12.2298L53.0626 12.2477C53.2652 12.5993 53.5984 12.8571 53.9901 12.9651C53.8366 13.1429 53.6361 13.2739 53.4115 13.3432C53.4996 13.4534 53.6119 13.542 53.7396 13.6022C53.6322 13.7243 53.4563 13.7689 53.3399 13.8999C53.2569 13.993 53.1966 14.1041 53.164 14.2244L52.5376 15.9481C52.556 15.6098 52.5042 15.2713 52.3855 14.9538C52.3199 14.7395 52.2155 14.4894 51.9918 14.4566C51.9198 14.4526 51.848 14.4676 51.7837 14.5C51.7193 14.5324 51.6645 14.5811 51.6249 14.6412C51.5492 14.7647 51.4966 14.9009 51.4699 15.0431C51.4586 14.7332 51.3831 14.429 51.2481 14.1498C51.1131 13.8705 50.9215 13.6222 50.6854 13.4206C50.584 13.3257 50.4613 13.2563 50.3275 13.2182C50.2288 13.2019 50.128 13.2019 50.0293 13.2182C49.6763 13.2487 49.3373 13.3697 49.045 13.5695C48.8273 13.7213 48.6095 13.9238 48.3441 13.8999C48.0786 13.8761 47.9206 13.6975 47.7028 13.7511C47.4851 13.8047 47.4612 13.8106 47.4225 13.6201C47.3959 13.4368 47.386 13.2515 47.3926 13.0664Z" fill="#505365"/>
<path d="M72.691 20.8245C72.5538 21.0835 72.4166 21.42 72.5746 21.6581C72.7327 21.8963 73.1234 21.9171 73.4366 21.8814C73.2726 22.0213 73.4366 22.2863 73.6245 22.3964C73.8814 22.5499 74.1752 22.6309 74.4745 22.6309C74.7739 22.6309 75.0677 22.5499 75.3246 22.3964C75.5423 22.6495 75.948 22.5036 76.282 22.5274C76.4511 22.5482 76.6134 22.6067 76.7569 22.6984C76.9004 22.7901 77.0215 22.9127 77.1112 23.0573C77.285 23.3472 77.4147 23.6612 77.4959 23.9892C77.6177 23.9662 77.727 23.8998 77.8033 23.8022C77.8796 23.7047 77.9177 23.5828 77.9105 23.4592C78.0962 23.5786 78.313 23.6407 78.5339 23.6379L78.9127 21.9112C78.9612 21.742 78.9774 21.5653 78.9604 21.3902C78.8948 20.9972 78.5219 20.7412 78.1819 20.5328C78.2373 20.451 78.2669 20.3546 78.2669 20.2559C78.2669 20.1572 78.2373 20.0608 78.1819 19.9791C78.0648 19.8204 77.9228 19.6817 77.7614 19.5682C77.4713 19.2731 77.1283 19.0347 76.7503 18.8656C76.5587 18.7943 76.3471 18.7986 76.1586 18.8777C75.9701 18.9568 75.819 19.1048 75.7362 19.2914C74.4268 18.7495 73.2755 19.7141 72.691 20.8245Z" fill="#505365"/>
<path d="M42.5234 42.9202C43.1438 43.0691 43.5703 42.9827 44.2086 43.0334C44.6736 43.0988 45.1473 43.0602 45.5955 42.9202C45.6581 43.3506 45.6581 43.7878 45.5955 44.2182C45.4822 44.8136 45.1601 49.9163 44.8737 50.1723C44.6176 50.342 44.3142 50.4263 44.0071 50.4129C43.7 50.3995 43.405 50.2892 43.1647 50.0979L42.5234 42.9202Z" fill="white"/>
<path d="M55.8309 41.8098C55.8309 41.8098 55.9741 43.989 55.2344 44.5546L63.5857 45.7752C63.5857 45.7752 64.382 44.7779 63.6811 44.111C62.9802 43.4442 62.6551 43.5514 62.6551 43.5514C62.6551 43.5514 59.4816 42.298 59.0014 42.0271C57.9008 41.387 55.8309 41.8098 55.8309 41.8098Z" fill="white"/>
<path d="M58.6575 23.7421C58.6524 23.7559 58.6453 23.7689 58.6366 23.7808C58.5889 23.8845 58.5123 23.9723 58.4159 24.0338C58.1713 24.1469 57.9118 23.8939 57.6434 23.8522C57.196 23.7867 56.9007 24.2988 56.7785 24.7453C56.2326 26.7489 56.5876 28.8745 56.5906 30.9555C56.5906 31.2859 56.5458 31.6819 56.2535 31.8307C56.0941 31.8959 55.9201 31.9175 55.7495 31.8932C54.9721 31.8611 54.1943 31.9433 53.4409 32.1374C53.3186 32.1671 53.1964 32.2028 53.0711 32.2415C52.4049 32.2451 51.7489 32.4052 51.1562 32.7089C51.52 32.0539 52.0303 31.4915 52.6476 31.0656C53.1486 30.7203 53.7481 30.4404 54.0315 29.9016C54.3297 29.3062 54.1925 28.6095 54.2492 27.9486C54.3059 27.2877 54.6041 26.5822 54.6906 25.8647C54.7235 25.6864 54.7143 25.5029 54.6638 25.3288C54.5801 25.1265 54.4467 24.9483 54.2761 24.8108C53.7004 24.2839 52.9816 23.8135 52.7848 23.0633C53.1773 23.3532 53.6369 23.5393 54.1208 23.6044C54.6047 23.6694 55.0972 23.6113 55.5526 23.4354C56.4474 23.0722 57.4764 22.9323 58.3682 23.495C58.4783 23.5599 58.5762 23.6435 58.6575 23.7421Z" fill="url(#paint4_linear)"/>
<path d="M85.9118 37.9873C85.4847 38.4333 84.9615 38.7764 84.3818 38.9905C83.8011 39.1393 83.2113 39.2497 82.6161 39.321C82.2435 39.2737 81.8656 39.2878 81.4976 39.3627C82.0404 39.1156 82.5832 38.8625 83.1201 38.6035C83.2266 38.5676 83.3166 38.4947 83.3736 38.3981C83.3934 38.3426 83.4045 38.2843 83.4065 38.2254C83.4333 37.7848 83.4572 37.3323 83.484 36.9066C83.5077 36.7854 83.4842 36.6598 83.4184 36.5553C83.3651 36.5025 83.301 36.4619 83.2305 36.4362L82.4461 36.1058C82.6007 35.6112 82.6821 35.0967 82.6876 34.5785C82.7065 34.3299 82.657 34.0808 82.5445 33.8581C82.455 33.7063 82.3148 33.5872 82.2194 33.4383C82.0655 33.1364 81.9703 32.8081 81.939 32.4708C81.7272 31.4586 81.0084 30.5387 81.1069 29.4937L81.8883 29.6872C82.1325 29.7674 82.3928 29.7858 82.6459 29.7408C82.8574 29.6539 83.0576 29.542 83.2424 29.4074C83.5944 29.202 84.006 29.1305 84.3758 28.9549C84.5465 28.8746 84.6988 28.7601 84.8232 28.6185C84.9127 28.5143 84.9753 28.2999 85.1214 28.2761C85.1521 28.2642 85.1862 28.2642 85.2169 28.2761C85.2348 28.6691 85.2348 29.065 85.2169 29.4669C85.2234 29.5617 85.1982 29.6559 85.1453 29.7349C85.073 29.8034 84.9814 29.8481 84.8828 29.8629C84.2863 30.0058 82.8666 30.0058 82.7443 30.7739C82.7189 30.9857 82.731 31.2003 82.7801 31.408C83.0044 32.4858 83.3905 33.5236 83.9254 34.4863C84.0567 34.7304 84.1968 34.9745 84.34 35.2186C84.4832 35.4627 86.1654 37.7342 85.9118 37.9873Z" fill="url(#paint5_linear)"/>
<path d="M74.3835 32.9114C74.294 32.7001 73.256 33.882 73.0055 34.1737H72.9906L72.8951 34.1975C72.5541 33.9686 72.2434 33.6975 71.9705 33.3907L71.9258 33.3342C71.9109 33.3163 71.896 33.2955 71.8781 33.2776L71.7796 33.1555C71.7475 33.1181 71.7232 33.0745 71.7084 33.0274C71.6935 32.9804 71.6883 32.9308 71.6932 32.8817C72.0228 32.8976 72.3523 32.848 72.6625 32.7358C72.7611 32.7024 72.8545 32.6553 72.9399 32.5959C73.3694 32.2654 73.2859 31.4854 73.7661 31.2354C73.8376 31.2675 73.9013 31.3148 73.9528 31.3739C74.0043 31.433 74.0424 31.5025 74.0643 31.5777C74.1062 31.7277 74.14 31.8797 74.1657 32.0332C74.2164 32.325 74.4551 32.6078 74.3835 32.9114Z" fill="url(#paint6_linear)"/>
<path d="M21.7218 42.1194C21.9206 42.3776 22.1946 42.5679 22.5062 42.6642L22.7806 42.0242C22.7269 42.1522 23.1087 42.1135 23.1654 42.0569C23.2936 41.9259 23.3026 41.4407 23.3563 41.2591C23.456 41.4868 23.5976 41.6938 23.7738 41.8694L24.2481 41.2114C24.2779 41.1727 24.3196 41.1281 24.3674 41.1429C24.3798 41.1488 24.3909 41.1571 24.4002 41.1674C24.4094 41.1776 24.4165 41.1895 24.421 41.2025L24.773 41.8396L25.0504 41.6937L25.1428 42.1462C25.2434 42.0622 25.3535 41.9903 25.4709 41.9319C25.5214 42.0753 25.5906 42.2114 25.6767 42.3368L25.9988 41.9825C26.1424 42.1615 26.3237 42.3068 26.5297 42.4082C26.5637 42.2553 26.6276 42.1107 26.7176 41.9825C26.798 42.0779 26.9003 42.1525 27.0159 42.1998L27.1889 41.8455C27.2338 41.8915 27.2924 41.9218 27.3559 41.9319C27.4603 41.8813 27.3798 41.6878 27.4782 41.6342C27.5099 41.6223 27.5449 41.6223 27.5766 41.6342C28.3197 41.6998 29.0683 41.6637 29.8017 41.527C29.3443 41.6365 28.8782 41.7062 28.4088 41.7354C28.2414 41.7385 28.077 41.7803 27.9286 41.8574C27.8548 41.8969 27.7966 41.9603 27.7636 42.0371C27.7305 42.1139 27.7245 42.1996 27.7466 42.2802C27.6641 42.1922 27.5619 42.1248 27.4484 42.0837L27.3321 42.3814C27.2277 42.2683 27.0338 42.3814 26.9294 42.4737L26.3985 42.947C26.318 42.8101 26.3448 42.5958 26.2017 42.5243C26.1539 42.5055 26.1013 42.5032 26.0521 42.5178C26.0029 42.5324 25.96 42.5629 25.9302 42.6047C25.8704 42.6941 25.8317 42.7959 25.8169 42.9024C25.7271 42.7617 25.5911 42.6565 25.4321 42.6047C25.1846 42.5511 24.9698 42.7982 24.6775 42.7506C24.6179 42.7506 23.8782 42.4529 24.081 42.3129L23.6575 42.6553C23.6419 42.6115 23.6098 42.5755 23.568 42.5549C23.5263 42.5343 23.4781 42.5308 23.4338 42.5451H23.404C23.4265 42.562 23.4452 42.5833 23.4592 42.6077C23.4731 42.632 23.4818 42.659 23.4849 42.6869C23.488 42.7148 23.4853 42.743 23.477 42.7699C23.4687 42.7967 23.4551 42.8215 23.4368 42.8429C23.4053 42.8798 23.3622 42.905 23.3145 42.9143C22.8869 43.0931 22.422 43.1646 21.9604 43.1227C21.965 43.2536 21.9285 43.3827 21.856 43.4918C21.7218 43.2596 21.3728 43.3251 21.1223 43.4234C20.6809 43.602 20.2275 43.7747 19.7891 43.9414C20.6071 43.549 21.2826 42.9122 21.7218 42.1194Z" fill="url(#paint7_linear)"/>
<path d="M32.9433 41.256C33.1421 41.5142 33.4161 41.7045 33.7277 41.8008L34.0021 41.1607C33.9484 41.2888 34.3302 41.2501 34.3869 41.1935C34.5151 41.0625 34.5241 40.5772 34.5778 40.3956C34.6781 40.6186 34.8198 40.8206 34.9953 40.9911L35.4696 40.3331C35.4994 40.2944 35.5412 40.2498 35.5889 40.2647C35.6013 40.2706 35.6125 40.2789 35.6217 40.2891C35.6309 40.2993 35.638 40.3112 35.6426 40.3242L35.9945 40.9613L36.2719 40.8154L36.3644 41.2709C36.4625 41.1836 36.573 41.1114 36.6924 41.0566C36.7429 41.199 36.8121 41.3342 36.8982 41.4585L37.2293 41.1072C37.371 41.288 37.5527 41.4337 37.7602 41.5329C37.7923 41.3803 37.8563 41.2362 37.9481 41.1101C38.0301 41.2031 38.132 41.2764 38.2464 41.3245L38.4194 40.9702C38.4619 41.0193 38.5217 41.0502 38.5864 41.0566C38.6908 41.0059 38.6103 40.8124 38.7087 40.7588C38.7404 40.747 38.7754 40.747 38.8071 40.7588C39.5502 40.8245 40.2988 40.7884 41.0321 40.6517C40.5747 40.7612 40.1087 40.8309 39.6392 40.8601C39.4719 40.8632 39.3075 40.9049 39.159 40.9821C39.0853 41.0216 39.0271 41.085 38.994 41.1617C38.961 41.2385 38.955 41.3243 38.9771 41.4049C38.8938 41.3178 38.7918 41.2507 38.6788 41.2084L38.5625 41.5061C38.4581 41.393 38.2643 41.5061 38.1599 41.5984L37.629 42.0717C37.5484 41.9348 37.5753 41.7204 37.4321 41.649C37.3839 41.63 37.3308 41.6276 37.2811 41.6421C37.2314 41.6567 37.188 41.6874 37.1577 41.7294C37.0989 41.819 37.0611 41.9208 37.0474 42.0271C36.9575 41.8864 36.8215 41.7811 36.6626 41.7294C36.4151 41.6758 36.2003 41.9229 35.908 41.8782C35.8484 41.8782 35.1087 41.5805 35.3115 41.4406L34.888 41.783C34.8724 41.7385 34.8398 41.7019 34.7974 41.6813C34.7549 41.6606 34.706 41.6576 34.6613 41.6728H34.6344C34.6569 41.6897 34.6757 41.7109 34.6896 41.7353C34.7035 41.7597 34.7123 41.7867 34.7154 41.8146C34.7185 41.8425 34.7158 41.8707 34.7075 41.8975C34.6992 41.9243 34.6855 41.9492 34.6673 41.9705C34.6358 42.0074 34.5927 42.0326 34.545 42.042C34.1174 42.2207 33.6525 42.2923 33.1909 42.2504C33.1955 42.3813 33.159 42.5103 33.0865 42.6195C32.9523 42.3873 32.6033 42.4528 32.3528 42.551C31.9093 42.7297 31.4649 42.9023 31.0195 43.069C31.8334 42.6782 32.5056 42.0446 32.9433 41.256Z" fill="url(#paint8_linear)"/>
<path d="M11.6917 47.7222C11.8904 47.9804 12.1645 48.1707 12.4761 48.267L12.7505 47.6269C12.6968 47.7549 13.0786 47.7162 13.1352 47.6597C13.2635 47.5317 13.2724 47.0464 13.3261 46.8618C13.4265 47.0848 13.5681 47.2868 13.7437 47.4572L14.2179 46.7993C14.2478 46.7606 14.2895 46.716 14.3372 46.7308C14.3497 46.7367 14.3608 46.745 14.37 46.7553C14.3793 46.7655 14.3864 46.7774 14.3909 46.7904L14.7429 47.4275L15.0203 47.2816L15.1127 47.7371C15.2108 47.6498 15.3214 47.5775 15.4408 47.5227C15.4913 47.6652 15.5605 47.8003 15.6466 47.9246L15.9687 47.5704C16.1104 47.7512 16.2921 47.8969 16.4996 47.9961C16.5335 47.8441 16.5974 47.7004 16.6875 47.5733C16.7695 47.6663 16.8715 47.7396 16.9858 47.7877L17.1588 47.4334C17.2013 47.4825 17.2611 47.5134 17.3258 47.5198C17.4302 47.4691 17.3497 47.2756 17.4481 47.222C17.4798 47.2102 17.5148 47.2102 17.5465 47.222C18.2895 47.2872 19.0379 47.2521 19.7715 47.1179C19.3138 47.2249 18.8479 47.2937 18.3787 47.3233C18.2113 47.3264 18.0469 47.3681 17.8985 47.4453C17.8247 47.4848 17.7665 47.5482 17.7334 47.6249C17.7004 47.7017 17.6944 47.7875 17.7165 47.8681C17.6332 47.781 17.5312 47.7139 17.4183 47.6716L17.3019 47.9693C17.1975 47.8591 17.0037 47.9693 16.8993 48.0616L16.3744 48.5498C16.2938 48.4099 16.3207 48.1955 16.1775 48.1241C16.1293 48.1051 16.0762 48.1027 16.0265 48.1172C15.9768 48.1318 15.9333 48.1625 15.9031 48.2045C15.8442 48.2941 15.8065 48.3959 15.7927 48.5022C15.7029 48.3615 15.5669 48.2562 15.408 48.2045C15.1604 48.1509 14.9457 48.398 14.6534 48.3533C14.5937 48.3533 13.8541 48.0556 14.0569 47.9157L13.6184 48.2521C13.6029 48.2076 13.5703 48.1711 13.5278 48.1504C13.4854 48.1298 13.4365 48.1267 13.3918 48.142H13.3649C13.3874 48.1588 13.4062 48.1801 13.4201 48.2045C13.434 48.2289 13.4428 48.2558 13.4459 48.2837C13.4489 48.3116 13.4462 48.3398 13.438 48.3667C13.4297 48.3935 13.416 48.4183 13.3977 48.4397C13.3662 48.4766 13.3231 48.5018 13.2754 48.5111C12.8479 48.6899 12.383 48.7614 11.9213 48.7195C11.9259 48.8504 11.8894 48.9795 11.8169 49.0887C11.6827 48.8564 11.3338 48.9219 11.0832 49.0202C10.6418 49.1988 10.1884 49.3715 9.75 49.5382C10.5705 49.1489 11.2492 48.5142 11.6917 47.7222Z" fill="url(#paint9_linear)"/>
<path d="M60.0363 38.9458C60.2344 39.2047 60.5087 39.3952 60.8208 39.4906L61.0952 38.8506C61.0415 38.9786 61.4233 38.9399 61.4799 38.8833C61.6082 38.7523 61.6171 38.2671 61.6708 38.0855C61.7705 38.3132 61.9121 38.5202 62.0884 38.6958L62.5626 38.0378C62.5924 37.9991 62.6342 37.9545 62.6789 37.9694C62.7237 37.9843 62.7207 38.0051 62.7356 38.0289L63.0875 38.666L63.3649 38.5201L63.4574 38.9726C63.5563 38.8863 63.6667 38.8142 63.7855 38.7583C63.8361 38.9011 63.9042 39.037 63.9883 39.1632L64.3134 38.8089C64.4551 38.9898 64.6368 39.1355 64.8443 39.2346C64.8763 39.082 64.9404 38.938 65.0322 38.8119C65.1142 38.9048 65.2161 38.9781 65.3305 39.0262L65.5034 38.6719C65.546 38.721 65.6058 38.7519 65.6705 38.7583C65.7719 38.7077 65.6943 38.5142 65.7898 38.4606C65.8225 38.4488 65.8584 38.4488 65.8912 38.4606C66.6343 38.5262 67.3829 38.4901 68.1162 38.3534C67.6578 38.4629 67.1908 38.5326 66.7203 38.5618C66.5539 38.5645 66.3904 38.6063 66.2431 38.6839C66.1695 38.7237 66.1114 38.7869 66.0779 38.8635C66.0444 38.9401 66.0374 39.0256 66.0582 39.1066C65.9757 39.0186 65.8735 38.9512 65.7599 38.9101L65.6436 39.2078C65.5392 39.0947 65.3454 39.2078 65.241 39.3001L64.7101 39.7735C64.6295 39.6365 64.6564 39.4222 64.5132 39.3507C64.465 39.3317 64.4119 39.3293 64.3622 39.3439C64.3125 39.3584 64.2691 39.3891 64.2388 39.4311C64.18 39.5207 64.1422 39.6225 64.1285 39.7288C64.0386 39.5881 63.9026 39.4829 63.7437 39.4311C63.4962 39.3775 63.2784 39.6246 62.9861 39.5799C62.9295 39.5799 62.1898 39.2822 62.3896 39.1393L61.9661 39.4817C61.9581 39.4596 61.9458 39.4393 61.9299 39.4219C61.914 39.4045 61.8949 39.3905 61.8735 39.3805C61.8522 39.3706 61.8291 39.3649 61.8056 39.3639C61.7821 39.3629 61.7585 39.3665 61.7364 39.3745H61.7096C61.7321 39.3914 61.7508 39.4127 61.7648 39.437C61.7787 39.4614 61.7874 39.4884 61.7905 39.5163C61.7936 39.5442 61.7909 39.5724 61.7826 39.5992C61.7744 39.6261 61.7607 39.6509 61.7424 39.6722C61.7109 39.7092 61.6678 39.7344 61.6201 39.7437C61.1943 39.9251 60.7297 39.9967 60.269 39.9521C60.2736 40.083 60.2371 40.2121 60.1646 40.3212C60.0304 40.089 59.6814 40.1545 59.4309 40.2528C58.9855 40.4314 58.5411 40.604 58.0977 40.7708C58.9179 40.378 59.5955 39.7402 60.0363 38.9458Z" fill="url(#paint10_linear)"/>
<path d="M60.0375 55.5668C60.2341 55.8272 60.509 56.018 60.8219 56.1116L61.0963 55.4745C61.0426 55.5995 61.4244 55.5608 61.4811 55.5072C61.6093 55.3762 61.6183 54.891 61.672 54.7064C61.7709 54.9354 61.9126 55.1436 62.0895 55.3197L62.5637 54.6617C62.5936 54.6201 62.6353 54.5754 62.6801 54.5933C62.7248 54.6111 62.7218 54.629 62.7367 54.6528L63.0887 55.2899L63.3661 55.1411L63.4585 55.5965C63.5556 55.5163 63.6629 55.4492 63.7777 55.3971C63.8283 55.5389 63.8965 55.6739 63.9805 55.799L64.3056 55.4477C64.4485 55.6266 64.63 55.7711 64.8365 55.8704C64.8685 55.7179 64.9326 55.5738 65.0244 55.4477C65.1041 55.5431 65.2067 55.6169 65.3227 55.662L65.4956 55.3107C65.5385 55.359 65.5983 55.3888 65.6627 55.3941C65.7641 55.3465 65.6865 55.153 65.782 55.0964C65.8147 55.0846 65.8506 55.0846 65.8834 55.0964C66.6265 55.162 67.3751 55.126 68.1084 54.9892C67.6497 55.0963 67.1827 55.165 66.7126 55.1946C66.5465 55.2006 66.3838 55.2422 66.2353 55.3167C66.1624 55.3573 66.1049 55.4206 66.0715 55.497C66.0381 55.5733 66.0307 55.6585 66.0504 55.7394C65.9662 55.6534 65.8645 55.5864 65.7522 55.543L65.6358 55.8407C65.5314 55.7275 65.3376 55.8407 65.2332 55.93L64.7023 56.4063C64.6217 56.2664 64.6486 56.052 64.5054 55.9806C64.4568 55.9629 64.4038 55.9615 64.3543 55.9765C64.3048 55.9916 64.2615 56.0222 64.231 56.0639C64.1752 56.1497 64.1377 56.2459 64.1207 56.3468C64.0292 56.2075 63.8938 56.1027 63.7359 56.0491C63.4884 55.9955 63.2706 56.2426 62.9783 56.1979C62.9217 56.1979 62.182 55.9002 62.3818 55.7603L61.9583 56.1026C61.9503 56.0805 61.938 56.0602 61.9221 56.0428C61.9062 56.0255 61.8871 56.0114 61.8657 56.0015C61.8444 55.9915 61.8213 55.9859 61.7978 55.9848C61.7743 55.9838 61.7507 55.9874 61.7286 55.9955H61.7018C61.7225 56.0115 61.7399 56.0314 61.753 56.0542C61.766 56.0769 61.7744 56.102 61.7777 56.128C61.7811 56.154 61.7792 56.1804 61.7723 56.2056C61.7654 56.2309 61.7536 56.2546 61.7376 56.2753C61.7065 56.3148 61.6619 56.3413 61.6123 56.3497C61.1864 56.5308 60.7221 56.6034 60.2612 56.5611C60.2662 56.6911 60.2296 56.8194 60.1568 56.9273C60.0226 56.6951 59.6736 56.7636 59.4231 56.8618C58.9777 57.0384 58.5333 57.2111 58.0898 57.3798C58.9127 56.9931 59.5937 56.3592 60.0375 55.5668Z" fill="url(#paint11_linear)"/>
<path d="M90.0588 41.1786C90.2564 41.4381 90.5309 41.6287 90.8433 41.7234L91.1177 41.0863C91.064 41.2113 91.4487 41.1726 91.5024 41.1191C91.6307 40.9881 91.6396 40.5028 91.6933 40.3182C91.7933 40.5467 91.9349 40.7546 92.1109 40.9315L92.5851 40.2736C92.6149 40.2319 92.6567 40.1872 92.7044 40.2051C92.7521 40.223 92.7462 40.2408 92.7611 40.2646L93.11 40.9017L93.3874 40.7529L93.4829 41.2084C93.5812 41.1228 93.6905 41.0507 93.808 40.994C93.8615 41.1352 93.9305 41.2699 94.0138 41.3959L94.3389 41.0446C94.4801 41.2241 94.6607 41.3687 94.8668 41.4674C94.9007 41.3154 94.9646 41.1717 95.0547 41.0446C95.1344 41.1401 95.237 41.2138 95.353 41.259L95.523 40.9077C95.5674 40.9554 95.628 40.9851 95.693 40.991C95.7944 40.9434 95.7139 40.7499 95.8123 40.6933C95.844 40.6815 95.879 40.6815 95.9107 40.6933C96.6538 40.759 97.4024 40.7229 98.1357 40.5862C97.678 40.6932 97.2121 40.762 96.7428 40.7916C96.5755 40.7971 96.4114 40.8399 96.2627 40.9166C96.1902 40.9568 96.1331 41.0197 96.1002 41.0956C96.0673 41.1715 96.0604 41.2562 96.0807 41.3364C95.9965 41.2503 95.8948 41.1833 95.7824 41.1399L95.6661 41.4376C95.5617 41.3245 95.3679 41.4376 95.2635 41.5269L94.7356 42.0032C94.655 41.8633 94.6819 41.649 94.5357 41.5775C94.4876 41.5601 94.435 41.5588 94.386 41.5738C94.337 41.5888 94.2943 41.6194 94.2643 41.6609C94.2042 41.7499 94.1663 41.852 94.154 41.9586C94.0614 41.8191 93.925 41.7144 93.7662 41.6609C93.5216 41.6073 93.3039 41.8544 93.0116 41.8097C92.952 41.8097 92.2123 41.512 92.4002 41.3721L91.9886 41.7026C91.9806 41.6804 91.9683 41.6601 91.9524 41.6428C91.9365 41.6254 91.9174 41.6113 91.8961 41.6014C91.8747 41.5914 91.8516 41.5858 91.8281 41.5847C91.8046 41.5837 91.7811 41.5873 91.7589 41.5954H91.7321C91.7546 41.6122 91.7733 41.6335 91.7873 41.6579C91.8012 41.6823 91.81 41.7093 91.813 41.7372C91.8161 41.765 91.8134 41.7933 91.8051 41.8201C91.7969 41.8469 91.7832 41.8718 91.7649 41.8931C91.7334 41.93 91.6903 41.9552 91.6426 41.9645C91.216 42.143 90.7522 42.2146 90.2915 42.1729C90.294 42.3031 90.2566 42.4309 90.1841 42.5391C90.0499 42.3069 89.7009 42.3754 89.4504 42.4736C89.009 42.6503 88.5646 42.8229 88.1172 42.9916C88.9382 42.6044 89.6171 41.9705 90.0588 41.1786Z" fill="url(#paint12_linear)"/>
<path d="M20.3559 73.959C20.5434 74.1138 20.6959 74.3066 20.8033 74.5246C20.9852 74.861 20.9703 75.257 21.2507 75.5398C21.6533 75.9447 22.3483 75.5904 22.7062 76.1084C22.9359 76.4448 22.7927 76.8973 22.6257 77.2665C22.5353 77.4938 22.4116 77.7065 22.2588 77.8976C21.8412 78.3769 21.1493 78.5079 20.511 78.493C20.2633 78.4988 20.0164 78.4636 19.7803 78.3889C19.6335 78.3325 19.4918 78.2638 19.3567 78.1834L18.6916 77.8173C18.1813 77.5796 17.7224 77.2449 17.3405 76.8318C16.6813 76.0042 17.1138 74.9295 17.6686 74.1525C18.1816 73.438 18.9392 73.3814 19.7355 73.6494C19.9587 73.7161 20.1686 73.8208 20.3559 73.959Z" fill="#505365"/>
<path d="M13.0944 47.8621C12.3786 48.6481 11.6031 49.8419 12.653 51.375C13.7029 52.9082 15.1614 55.9389 19.1521 59.9817C18.5352 61.9409 18.2569 63.9906 18.3289 66.043C18.4721 68.7075 18.0575 73.2207 17.971 73.6404C17.8845 74.0602 19.7009 74.3847 20.2467 74.1078C20.2467 74.1078 22.245 63.2327 22.7491 61.5744C23.5276 59.0082 23.5276 59.0082 22.0005 56.9868C20.4734 54.9654 18.3945 51.0089 18.3945 51.0089L13.0944 47.8621Z" fill="#FCB787"/>
<path d="M22.9134 57.7787C22.8779 57.844 22.8348 57.905 22.7851 57.9603C22.3855 58.4099 21.5921 58.779 21.0761 59.0529C20.4565 59.3745 19.806 59.6328 19.1344 59.8239C18.9435 59.8805 17.2166 60.3479 17.142 60.1812C17.142 60.1812 15.1348 55.7662 14.2519 54.7302C13.3094 53.6257 12.2357 52.4706 11.9314 51C11.8367 50.5865 11.8305 50.1576 11.9132 49.7416C11.996 49.3255 12.1658 48.9316 12.4116 48.5856C13.0976 47.6121 14.3951 47.5466 15.4837 47.2459C15.7669 47.1583 16.0574 47.0966 16.3517 47.0613C16.8508 47.0434 17.3505 47.0763 17.843 47.1596C18.4723 47.2251 19.215 47.2876 19.6951 47.755C20.2618 48.3057 20.3543 49.3388 20.5571 50.0592C21.1497 52.1743 21.8606 54.2546 22.6867 56.2902C22.9134 56.7665 23.1669 57.3083 22.9134 57.7787Z" fill="#505365"/>
<path d="M36.183 39.0233C36.0667 39.2942 35.6938 39.321 35.4016 39.2704C35.1093 39.2197 34.7663 39.1572 34.5485 39.3567C34.4024 39.4847 34.3457 39.708 34.1727 39.7884C33.9997 39.8687 33.7641 39.7467 33.5762 39.6603C32.923 39.3626 32.1177 39.5889 31.557 39.9908C30.9178 40.441 30.2547 40.8564 29.5706 41.2352C29.2059 41.4671 28.8103 41.6465 28.3954 41.7681C27.5006 41.9884 26.579 41.6847 25.7767 41.2561C25.037 40.8571 24.348 40.3481 23.5875 39.9968C23.5248 39.964 23.4652 39.9372 23.3996 39.9104C22.7822 39.6514 21.1895 39.2138 20.9151 40.0831C20.8288 40.421 20.7808 40.7675 20.7719 41.1161C20.7605 41.2949 20.7386 41.4728 20.7063 41.649C20.602 42.1909 20.4675 42.7266 20.3036 43.2537C20.2291 43.5008 20.1635 43.733 20.1098 43.9562V44.0217C19.9689 44.5985 19.887 45.188 19.8652 45.7812V45.8258C19.8532 46.2295 19.8712 46.6335 19.9189 47.0345C19.9457 47.1611 19.9457 47.2919 19.9189 47.4186C19.9219 47.4262 19.9219 47.4347 19.9189 47.4424L19.8771 47.4751L19.8324 47.5138L19.734 47.5793L19.6355 47.6567L19.5341 47.7133L19.4894 47.7371L19.2896 47.8324C18.9084 48.0055 18.5079 48.1325 18.0965 48.2105L17.9653 48.2343C17.538 48.3081 17.1041 48.3361 16.6708 48.3176L16.3398 48.2938H16.295C16.1668 48.2938 16.0385 48.27 15.9103 48.2611H15.5285L15.1616 48.2224C14.8813 48.2224 14.5979 48.2075 14.3146 48.2075H10.986C10.8401 48.2048 10.6946 48.1919 10.5505 48.1688C10.2985 48.1302 10.0508 48.0674 9.81085 47.9812C9.5988 47.9047 9.39247 47.8132 9.19346 47.7073C9.10398 47.6627 9.02047 47.6121 8.9459 47.5704L8.88923 47.5347C8.73712 47.4424 8.6208 47.362 8.54921 47.3114L8.49851 47.2757C8.33148 47.1596 9.44996 44.1974 10.3507 42.7297C10.4891 42.4994 10.6021 42.2549 10.6877 42.0003C11.3737 40.089 11.7316 36.4213 11.845 36.1057C11.7883 36.2695 9.37838 36.207 9.16065 36.2159C8.59097 36.2367 8.0213 36.2576 7.45162 36.2695H7.15336C6.77159 36.2695 5.58451 36.198 6.48227 36.594C6.6672 36.6773 6.83422 36.9215 6.69106 37.0703C6.62004 37.1292 6.5298 37.1599 6.43753 37.1566L5.28029 37.2727C5.00589 36.1117 4.68377 34.9387 4.34375 33.7658C5.30713 33.5812 6.3063 33.5008 7.25775 33.4085H7.29652C8.82361 33.2597 10.4193 33.2031 11.9166 32.8459C13.1194 32.59 14.3694 32.6672 15.5315 33.0691C15.9055 33.2032 16.3147 33.2032 16.6887 33.0691C18.6781 33.1257 19.3164 32.7268 21.5235 34.4743C22.4635 35.2276 23.3597 36.0337 24.2079 36.8887C24.486 37.16 24.7852 37.4088 25.1026 37.633C25.2965 37.7729 25.4904 37.9069 25.6992 38.0379C25.9974 38.2403 26.2957 38.4398 26.5939 38.6601C26.6988 38.7486 26.8178 38.819 26.9459 38.8685C27.1172 38.913 27.2958 38.9222 27.4708 38.8952C28.5107 38.7971 29.5398 38.6068 30.5459 38.3266C31.3609 38.1023 32.1584 37.8187 32.932 37.4782C33.3661 37.2403 33.8482 37.1029 34.3427 37.0763C35.0824 37.106 35.6909 37.6717 36.0577 38.3236C36.0756 38.3504 36.0905 38.3802 36.1084 38.41C36.166 38.5001 36.2026 38.602 36.2155 38.7082C36.2285 38.8143 36.2173 38.922 36.183 39.0233Z" fill="#FCB787"/>
<path d="M17.9719 73.6404C18.2074 71.6073 18.3359 69.5632 18.3567 67.5166C20.5549 67.984 21.4556 67.7101 21.4556 67.7101C20.8352 70.9045 20.2626 74.1078 20.2626 74.1078C19.7018 74.3847 17.8825 74.0602 17.9719 73.6404Z" fill="#F1F1F1"/>
<path d="M12.9712 52.0747C12.9712 52.0747 11.6081 56.3259 11.2442 58.8356C11.1727 59.3238 11.116 59.7287 11.0504 60.0264C10.7849 61.375 10.4151 61.5715 8.50025 62.5747C7.79338 62.9439 5.51765 64.4473 3.21509 65.9686L2.57681 66.4122C2.55387 66.4243 2.53192 66.4382 2.51119 66.4538C2.51119 66.305 2.49628 66.1561 2.4933 66.0043V65.3613V64.5962C2.48884 64.3805 2.4978 64.1647 2.52014 63.9501C2.52312 63.9194 2.52312 63.8885 2.52014 63.8579C2.52014 63.6733 2.544 63.4887 2.55892 63.3041V63.1374C2.5638 63.0178 2.57475 62.8986 2.59172 62.7801C2.6126 62.5539 2.63945 62.3276 2.66629 62.1014C3.97905 60.8264 5.47485 59.7538 7.1044 58.9189V58.7135C7.20581 53.1702 8.31533 50.0532 8.66728 48.2521C8.71159 48.0143 8.78366 47.7825 8.88203 47.5615C9.41591 46.3706 10.5732 46.1384 11.4799 46.0967L11.9511 47.9991L12.0108 48.2402L12.1331 48.7225L12.9712 52.0747Z" fill="#FCB787"/>
<path d="M11.3426 60.0799C11.3426 60.0799 7.99311 59.7822 5.57422 57.6298C5.57422 57.6298 7.31009 53.1047 7.4294 51.7501C7.5487 50.3956 7.59344 45.7544 11.4947 46.0937L15.0052 50.6516L11.3426 60.0799Z" fill="#505365"/>
<path d="M0.84375 63.9799C0.960071 63.8638 1.07341 63.7537 1.18675 63.6465L0.84375 63.9799Z" fill="#F1F1F1"/>
<path d="M3.22981 65.9835L2.57961 66.4122L2.51399 66.4509C2.51399 66.302 2.49908 66.1532 2.49609 66.0013V65.3583L2.6661 65.528C2.8339 65.703 3.02333 65.8561 3.22981 65.9835Z" fill="#F1F1F1"/>
<path d="M25.979 36.9394C25.8024 37.9722 25.4223 38.9598 24.8605 39.845C24.7412 40.0295 24.616 40.2082 24.4847 40.3779C23.9322 40.1008 23.3376 39.9167 22.725 39.8331C22.4177 39.7949 22.1057 39.8328 21.8165 39.9434C21.5273 40.0539 21.2698 40.2338 21.0667 40.4672C20.8439 40.8209 20.7023 41.2194 20.6521 41.6342C20.3837 43.0304 19.8856 44.3939 19.8438 45.8259C19.8438 46.1027 20.0854 47.2519 19.8856 47.4633C19.5746 47.7047 19.2232 47.8892 18.8476 48.0081C18.0155 48.2981 17.1291 48.3998 16.2528 48.3058C15.0886 48.2194 13.9204 48.2016 12.7542 48.2522C12.3366 48.2522 11.9429 48.273 11.5969 48.273C11.2492 48.28 10.9014 48.2631 10.556 48.2224C9.81265 48.085 9.1107 47.7795 8.50397 47.3293C8.14308 47.0792 9.69701 44.0307 9.81632 43.6854C9.93562 43.34 10.0549 43.0423 10.1623 42.7208C10.6073 41.4488 10.8567 40.1168 10.902 38.7703C10.918 38.5102 10.8888 38.2493 10.8155 37.9992C10.5172 37.1061 8.8082 37.4038 8.04465 37.3442C7.92268 37.3462 7.80337 37.3086 7.70464 37.2371C7.6271 37.1554 7.57795 37.051 7.56445 36.9394C7.47199 36.466 7.38848 35.9897 7.32883 35.5104V35.4062C7.32883 35.296 7.30198 35.1889 7.29304 35.0757C7.26025 34.7016 7.25128 34.3257 7.26619 33.9504C7.28909 33.7897 7.30005 33.6275 7.299 33.4651C7.28409 33.3103 7.15882 33.1674 7.22742 33.0097C7.29602 32.8519 7.55252 32.837 7.74937 32.8519C8.59345 32.9055 9.41366 32.5274 10.2607 32.5065C10.8244 32.4857 11.4001 32.6286 11.9459 32.5065C12.2043 32.4181 12.4697 32.3514 12.7393 32.3071C12.94 32.3076 13.1401 32.3305 13.3358 32.3755C13.9651 32.4797 14.6362 32.3487 15.2387 32.5661C15.7845 32.8127 16.3599 32.9878 16.9507 33.0871C17.4846 33.1347 18.0393 33.0871 18.5822 33.1138C19.9691 33.1913 20.9683 33.9117 22.0151 34.7155C23.1903 35.6027 24.6876 36.2189 25.979 36.9394Z" fill="white"/>
<path d="M14.8789 32.31C15.0875 32.4039 15.2872 32.5165 15.4754 32.6464C15.6842 32.7893 15.887 32.9441 16.1048 33.0751C16.3884 33.2097 16.6896 33.3039 16.9995 33.3549C17.1246 33.4044 17.2611 33.4172 17.3932 33.3919C17.5253 33.3666 17.6474 33.3042 17.7452 33.212C17.8653 32.8265 17.9267 32.425 17.9271 32.0212C17.5493 32.0386 17.1726 31.9683 16.8265 31.8158C16.4749 31.7174 16.1342 31.5837 15.8095 31.4169C15.6484 31.3216 15.4188 31.0537 15.2309 31.1847C15.0592 31.5406 14.9406 31.9198 14.8789 32.31Z" fill="#FCB787"/>
<path d="M21.4911 26.347C21.4937 26.6532 21.4348 26.9569 21.3181 27.2401L20.4084 29.9552C20.3618 30.1271 20.285 30.2894 20.1817 30.4345C20.0389 30.5763 19.8785 30.6994 19.7045 30.8007C19.108 31.2145 18.7769 31.8903 18.4578 32.5393C17.9716 32.6167 17.4496 32.3011 16.9665 32.2416C16.7781 32.2114 16.5852 32.2506 16.4236 32.3517C16.389 32.1421 16.275 31.9537 16.1051 31.8257C15.9352 31.6977 15.7224 31.6398 15.5109 31.664C15.3051 31.6968 15.0695 31.8039 14.9144 31.6789C14.813 31.6045 14.7802 31.4735 14.7176 31.3663C14.5804 31.1311 14.303 31.0091 14.1479 30.7709C13.7363 30.1755 14.4462 29.3925 14.4462 28.6572C14.4103 28.3331 14.3332 28.015 14.2165 27.7105C13.9182 26.5197 14.5148 25.2842 15.1113 24.1946C15.8182 24.013 16.4952 24.1708 17.1991 24.0755C17.5689 24.0279 17.9 23.8492 18.2609 23.7778C18.284 23.769 18.308 23.7631 18.3325 23.7599C19.6061 23.5575 20.4621 24.3553 21.0884 25.3616C21.3012 25.6523 21.4394 25.9907 21.4911 26.347Z" fill="#DD8049"/>
<path d="M18.8833 80.0858C16.2407 81.092 13.4072 80.8568 10.7497 80.1513C8.1807 78.6962 6.07019 76.5535 4.65625 73.965C8.95716 74.6408 15.155 77.3499 24.1446 77.7518C26.131 77.8441 20.7295 79.3862 18.8833 80.0858Z" fill="url(#paint13_linear)"/>
<path d="M24.8581 39.8301C24.7388 40.0147 24.6135 40.1933 24.4823 40.363C23.9297 40.0859 23.3351 39.9018 22.7225 39.8182C22.4152 39.78 22.1032 39.8179 21.814 39.9285C21.5248 40.039 21.2673 40.2189 21.0642 40.4523C20.8414 40.806 20.6998 41.2045 20.6496 41.6193C20.3812 43.0155 19.8831 44.379 19.8413 45.811C19.8413 46.0878 20.0829 47.237 19.8831 47.4484C19.5721 47.6898 19.2207 47.8743 18.8451 47.9932C18.6196 47.9913 18.4 47.9206 18.2158 47.7907C18.1821 47.7685 18.1528 47.7402 18.1293 47.7074C18.0339 47.5585 18.1741 47.3769 18.2874 47.24C18.5589 46.8564 18.7469 46.4203 18.8392 45.9598C19.0778 45.0876 19.3134 44.2212 19.549 43.3549C19.6689 43.0098 19.7216 42.645 19.7041 42.2802C19.6683 41.9825 19.5431 41.6997 19.5013 41.3871C19.4693 41.2395 19.4805 41.086 19.5333 40.9445C19.5862 40.8031 19.6786 40.6798 19.7996 40.5892C20.0113 40.4642 20.2977 40.4999 20.4945 40.354C20.5932 40.2656 20.6607 40.1477 20.687 40.0179C20.7133 39.8882 20.6971 39.7534 20.6407 39.6336C20.5186 39.4014 20.3477 39.1983 20.1396 39.0382C20.5757 38.9316 21.0195 38.8589 21.4668 38.8209C21.9712 38.8898 22.4697 38.9963 22.9581 39.1394C23.4861 39.2615 24.3779 39.3895 24.8581 39.8301Z" fill="url(#paint14_linear)"/>
<path d="M10.763 35.8706C10.7247 36.0808 10.6489 36.2825 10.5393 36.466C10.4818 36.5536 10.4021 36.6245 10.3084 36.6715C10.2146 36.7186 10.1101 36.7401 10.0054 36.734C9.903 36.7071 9.80319 36.6712 9.70714 36.6268C9.05693 36.3737 8.23672 36.7994 7.65511 36.4154C7.61932 36.3886 7.57458 36.3588 7.52984 36.3767C7.51093 36.3871 7.49549 36.4028 7.48542 36.4218C7.47534 36.4409 7.47109 36.4624 7.47317 36.4839C7.47271 36.6775 7.5242 36.8676 7.6223 37.0346C7.65176 37.1166 7.70213 37.1894 7.76845 37.246C7.90565 37.3443 8.09355 37.2847 8.2576 37.246C8.76166 37.0972 9.93083 37.3264 10.408 37.5437C10.7988 37.7253 10.8882 38.3922 10.8823 37.7968C10.8823 37.5229 10.9479 37.0852 10.93 36.8233C10.9121 36.5613 10.7093 36.085 10.763 35.8706Z" fill="url(#paint15_linear)"/>
<path d="M15.8778 26.6685C15.8359 26.6209 15.8008 26.5678 15.7734 26.5107L15.8629 26.4512C15.8689 26.5196 15.8719 26.597 15.8778 26.6685Z" fill="url(#paint16_linear)"/>
<path d="M16.0219 25.1383C15.8404 25.3113 15.7181 25.5371 15.6726 25.7835C15.6271 26.0299 15.6606 26.2844 15.7684 26.5107C15.6432 26.6411 15.5526 26.8005 15.5047 26.9747C15.4568 27.1488 15.4531 27.3321 15.494 27.508C15.6011 27.8895 15.6494 28.285 15.6371 28.681C15.5357 29.2764 14.9452 29.839 15.1569 30.4136L16.35 30.2826C16.3088 30.335 16.2892 30.4011 16.2951 30.4674C16.3009 30.5337 16.3319 30.5953 16.3817 30.6397C16.4314 30.6841 16.4962 30.7078 16.5629 30.7062C16.6296 30.7046 16.6932 30.6777 16.7407 30.6309C16.6125 31.1608 16.9584 31.786 16.9704 32.2504C16.782 32.2203 16.5891 32.2595 16.4275 32.3606C16.3929 32.1509 16.2789 31.9626 16.109 31.8346C15.9391 31.7066 15.7263 31.6487 15.5149 31.6729C15.3091 31.7056 15.0734 31.8128 14.9183 31.6878C14.8169 31.6134 14.7841 31.4824 14.7215 31.3752C14.5843 31.14 14.3069 31.0179 14.1518 30.7798C13.7402 30.1844 14.4501 29.4014 14.4501 28.6661C14.4142 28.342 14.3371 28.0239 14.2204 27.7194C13.9221 26.5285 14.5187 25.2931 15.1152 24.2035C15.8221 24.0219 16.4991 24.1797 17.203 24.0844C17.5729 24.0368 17.9039 23.8581 18.2648 23.7867C17.8949 24.1091 17.4812 24.3777 17.036 24.5845C16.6687 24.7099 16.3258 24.8972 16.0219 25.1383Z" fill="url(#paint17_linear)"/>
<defs>
<linearGradient id="paint0_linear" x1="79.6152" y1="32.2207" x2="86.5368" y2="67.6495" gradientUnits="userSpaceOnUse">
<stop offset="0.01"/>
<stop offset="0.08" stop-opacity="0.69"/>
<stop offset="0.21" stop-opacity="0.32"/>
<stop offset="1" stop-opacity="0"/>
</linearGradient>
<linearGradient id="paint1_linear" x1="5768.35" y1="1435.27" x2="5800.82" y2="663.091" gradientUnits="userSpaceOnUse">
<stop offset="0.01"/>
<stop offset="0.08" stop-opacity="0.69"/>
<stop offset="0.21" stop-opacity="0.32"/>
<stop offset="1" stop-opacity="0"/>
</linearGradient>
<linearGradient id="paint2_linear" x1="1865.86" y1="1193.8" x2="1839.09" y2="965.557" gradientUnits="userSpaceOnUse">
<stop offset="0.01"/>
<stop offset="0.08" stop-opacity="0.69"/>
<stop offset="0.21" stop-opacity="0.32"/>
<stop offset="1" stop-opacity="0"/>
</linearGradient>
<linearGradient id="paint3_linear" x1="1088.55" y1="261.894" x2="1083.18" y2="193.546" gradientUnits="userSpaceOnUse">
<stop offset="0.01"/>
<stop offset="0.08" stop-opacity="0.69"/>
<stop offset="0.21" stop-opacity="0.32"/>
<stop offset="1" stop-opacity="0"/>
</linearGradient>
<linearGradient id="paint4_linear" x1="1898.11" y1="1878.11" x2="1514.42" y2="2077.75" gradientUnits="userSpaceOnUse">
<stop offset="0.01"/>
<stop offset="0.08" stop-opacity="0.69"/>
<stop offset="0.21" stop-opacity="0.32"/>
<stop offset="1" stop-opacity="0"/>
</linearGradient>
<linearGradient id="paint5_linear" x1="1808.11" y1="2150.73" x2="1462.52" y2="2151.45" gradientUnits="userSpaceOnUse">
<stop offset="0.01"/>
<stop offset="0.08" stop-opacity="0.69"/>
<stop offset="0.21" stop-opacity="0.32"/>
<stop offset="1" stop-opacity="0"/>
</linearGradient>
<linearGradient id="paint6_linear" x1="850.319" y1="592.832" x2="816.653" y2="618.15" gradientUnits="userSpaceOnUse">
<stop offset="0.01"/>
<stop offset="0.08" stop-opacity="0.69"/>
<stop offset="0.21" stop-opacity="0.32"/>
<stop offset="1" stop-opacity="0"/>
</linearGradient>
<linearGradient id="paint7_linear" x1="1198.77" y1="575.894" x2="1199.3" y2="476.581" gradientUnits="userSpaceOnUse">
<stop offset="0.01"/>
<stop offset="0.08" stop-opacity="0.69"/>
<stop offset="0.21" stop-opacity="0.32"/>
<stop offset="1" stop-opacity="0"/>
</linearGradient>
<linearGradient id="paint8_linear" x1="1586.88" y1="584.293" x2="1587.4" y2="484.741" gradientUnits="userSpaceOnUse">
<stop offset="0.01"/>
<stop offset="0.08" stop-opacity="0.69"/>
<stop offset="0.21" stop-opacity="0.32"/>
<stop offset="1" stop-opacity="0"/>
</linearGradient>
<linearGradient id="paint9_linear" x1="852.661" y1="530.293" x2="853.189" y2="430.636" gradientUnits="userSpaceOnUse">
<stop offset="0.01"/>
<stop offset="0.08" stop-opacity="0.69"/>
<stop offset="0.21" stop-opacity="0.32"/>
<stop offset="1" stop-opacity="0"/>
</linearGradient>
<linearGradient id="paint10_linear" x1="2524.56" y1="603.18" x2="2525.09" y2="503.732" gradientUnits="userSpaceOnUse">
<stop offset="0.01"/>
<stop offset="0.08" stop-opacity="0.69"/>
<stop offset="0.21" stop-opacity="0.32"/>
<stop offset="1" stop-opacity="0"/>
</linearGradient>
<linearGradient id="paint11_linear" x1="2524.26" y1="461.203" x2="2524.79" y2="362.272" gradientUnits="userSpaceOnUse">
<stop offset="0.01"/>
<stop offset="0.08" stop-opacity="0.69"/>
<stop offset="0.21" stop-opacity="0.32"/>
<stop offset="1" stop-opacity="0"/>
</linearGradient>
<linearGradient id="paint12_linear" x1="3562.95" y1="581.685" x2="3563.47" y2="482.755" gradientUnits="userSpaceOnUse">
<stop offset="0.01"/>
<stop offset="0.08" stop-opacity="0.69"/>
<stop offset="0.21" stop-opacity="0.32"/>
<stop offset="1" stop-opacity="0"/>
</linearGradient>
<linearGradient id="paint13_linear" x1="1833.36" y1="640.024" x2="1803.88" y2="263.154" gradientUnits="userSpaceOnUse">
<stop offset="0.01"/>
<stop offset="0.08" stop-opacity="0.69"/>
<stop offset="0.21" stop-opacity="0.32"/>
<stop offset="1" stop-opacity="0"/>
</linearGradient>
<linearGradient id="paint14_linear" x1="535.674" y1="1767.25" x2="848.271" y2="1539.04" gradientUnits="userSpaceOnUse">
<stop offset="0.01"/>
<stop offset="0.08" stop-opacity="0.69"/>
<stop offset="0.21" stop-opacity="0.32"/>
<stop offset="1" stop-opacity="0"/>
</linearGradient>
<linearGradient id="paint15_linear" x1="255.413" y1="530.987" x2="245.698" y2="399.784" gradientUnits="userSpaceOnUse">
<stop offset="0.01"/>
<stop offset="0.08" stop-opacity="0.69"/>
<stop offset="0.21" stop-opacity="0.32"/>
<stop offset="1" stop-opacity="0"/>
</linearGradient>
<linearGradient id="paint16_linear" x1="24.9649" y1="73.3622" x2="25.0014" y2="73.3622" gradientUnits="userSpaceOnUse">
<stop offset="0.01"/>
<stop offset="0.08" stop-opacity="0.69"/>
<stop offset="0.21" stop-opacity="0.32"/>
<stop offset="1" stop-opacity="0"/>
</linearGradient>
<linearGradient id="paint17_linear" x1="228.976" y1="1876.95" x2="497.335" y2="1860.29" gradientUnits="userSpaceOnUse">
<stop offset="0.01"/>
<stop offset="0.08" stop-opacity="0.69"/>
<stop offset="0.21" stop-opacity="0.32"/>
<stop offset="1" stop-opacity="0"/>
</linearGradient>
</defs>
</svg>
