<svg width="48" height="48" viewBox="0 0 48 48" fill="none" xmlns="http://www.w3.org/2000/svg">
<path d="M37.6 23.2001V15.0001C37.6 13.1001 39.1 11.6001 41 11.6001V13.4001C40.1 13.4001 39.3 14.2001 39.3 15.1001V21.6001C39.4 22.4001 38.6 23.2001 37.6 23.2001Z" fill="#F2F2F2"/>
<path d="M41.7 13.8001C41.3 13.8001 41.1 13.5001 41.1 13.2001V11.7001C41.1 11.3001 41.4 11.1001 41.7 11.1001C42.1 11.1001 42.3 11.4001 42.3 11.7001V13.2001C42.3 13.5001 42 13.8001 41.7 13.8001Z" fill="#CDCBCB"/>
<path d="M24.9 0H1.89999C0.799994 0 -0.100006 0.9 -0.100006 2V46C-0.100006 47.1 0.799994 48 1.89999 48H34C35.1 48 36 47.1 36 46V11L24.9 0Z" fill="#F2F2F2"/>
<path d="M24.9 9C24.9 10.1 25.8 11 26.9 11H35.9L24.9 0V9Z" fill="#CDCBCB"/>
<path d="M31.8 22.8003H4.10001V25.3003H31.8V22.8003Z" fill="#CDCBCB"/>
<path d="M31.8 30.3003H4.10001V32.8003H31.8V30.3003Z" fill="#CDCBCB"/>
<path d="M31.7 37.8999H20.8V40.3999H31.7V37.8999Z" fill="#CDCBCB"/>
<path d="M18.9 7.6001H4.10001V10.1001H18.9V7.6001Z" fill="#CDCBCB"/>
<path d="M31.8 15.2002H4.10001V17.7002H31.8V15.2002Z" fill="#CDCBCB"/>
<path d="M41.7 8.2V40.7L43.7 45.3L44.9 48L46.1 45.3L48.1 40.7V8.2C48.1 6.4 46.7 5 44.9 5C43.1 5 41.7 6.4 41.7 8.2Z" fill="#3D8D99"/>
<path d="M48.2 10.2002H41.7V19.1002H48.2V10.2002Z" fill="#FFEC86"/>
<path d="M48.2 34.8999H41.7V40.5999H48.2V34.8999Z" fill="#FFEC86"/>
<path d="M46.1 45.2998L44.9 47.9998L43.7 45.2998H46.1Z" fill="#FFEC86"/>
</svg>
